<svg xmlns="http://www.w3.org/2000/svg" width="585" height="35.618" viewBox="0 0 585 35.618">
  <path fill="#2D2C79" stroke="#000" stroke-miterlimit="10" d="M-230.343 244.123H980.616v449.315H-230.343z"/>
  <g fill="#FFF">
    <path d="M211.929 23.809c-.048.096-.144.575-.384 1.392-.48 1.681-1.729 3.265-2.736 4.225-1.008 1.008-2.352 1.872-4.225 2.4-.912.239-1.968.384-3.12.384-.816 0-1.536-.048-2.064-.192l-.912 2.496c-.24.721-.864 1.104-1.584 1.104-.144 0-.336-.048-.576-.096-.912-.336-1.392-1.248-1.056-2.16l.912-2.496c-1.584-.912-2.88-2.16-4.033-3.553-1.152-1.393-2.16-2.977-3.12-4.513-1.392-2.16-2.688-4.176-4.224-5.712-1.584-1.488-3.409-2.4-5.905-2.4-2.448 0-4.608 1.008-6.145 2.544-1.584 1.584-2.592 3.792-2.592 6.24s1.008 4.608 2.592 6.145c1.536 1.585 3.696 2.593 6.145 2.593 3.264 0 6.241-1.776 7.777-4.656.432-.816 1.488-1.152 2.304-.721.816.433 1.2 1.488.672 2.305-2.112 4.032-6.145 6.48-10.753 6.48-3.312 0-6.336-1.393-8.544-3.601s-3.601-5.232-3.601-8.545c0-3.312 1.392-6.432 3.601-8.641 2.208-2.208 5.232-3.552 8.544-3.552 2.833 0 5.041.864 6.865 2.208s3.264 3.168 4.561 5.089c1.776-4.177 4.32-7.969 7.344-11.041 3.504-3.601 7.153-5.521 10.225-5.521h1.584c.816 0 1.392.384 1.632 1.2.24.72-.048 1.44-.672 1.872-.624.576-1.2 1.201-1.824 2.113-.336.479-.576 1.008-.816 1.632l-6.145 16.945c-.24.72-.864 1.104-1.584 1.104-.24 0-.432-.049-.576-.097-.912-.336-1.344-1.248-1.008-2.16l6.145-16.945c.24-.624.48-1.152.768-1.68-2.16.96-4.608 2.976-6.913 5.664-2.304 2.736-4.369 6.24-5.761 10.081-.048.144-.144.24-.192.288 1.2 1.872 2.448 3.552 3.84 4.8 1.344 1.248 2.976 2.017 5.088 2.017 2.544 0 4.464-.912 5.809-2.736.528-.72.816-1.44 1.008-1.968.144-.336.24-.624.288-.912.144-.912 1.056-1.536 1.968-1.393.913.146 1.537 1.058 1.393 1.97z"/>
    <path d="M231.895 24l-.336.769-.288.864-.672 1.92c-.576 1.872-1.632 3.888-3.072 5.424s-3.36 2.641-5.521 2.641c-1.104 0-1.824-.336-2.352-.72-1.488.624-2.928.72-4.033.72-.528 0-1.344-.048-2.16-.384-.816-.336-1.584-.96-1.92-2.064-.432-1.488.336-3.216 1.824-4.225 1.536-.96 3.984-1.296 6.433.769.048.048.144.144.24.191l.192.192c.768-1.008.816-2.017.288-3.168-.576-1.104-1.488-2.257-2.592-3.457l-1.68-1.68c-.912-.912-1.824-1.776-2.592-2.688l-2.112 6.145c-.336.769-.864 1.152-1.632 1.152-.144 0-.336-.048-.576-.096-.912-.336-1.393-1.248-1.056-2.16L212.07 13.2c.336-.912 1.296-1.393 2.208-1.056.912.336 1.392 1.296 1.056 2.208l-.192.479c-.048.097 0 .24.096.48.048.24.24.528.48.864.72.96 1.776 2.016 2.928 3.168 1.392 1.344 2.833 2.832 3.984 4.416 1.104 1.585 1.824 3.313 1.68 5.089-.096 1.104-.528 2.112-1.248 3.12 1.104-.384 1.968-1.296 2.736-2.353.72-1.056 1.2-2.208 1.536-3.12.528-1.536.816-2.4 1.008-2.928l.24-.528c.048-.096.048-.144.096-.192.528-.912 1.296-1.344 2.208-1.008s1.345 1.249 1.009 2.161zm-14.689 8.065c-.624-.432-1.152-.527-1.68-.336-.336.145-.432.24-.576.385.096.048.336.048.672.048.623 0 1.151-.048 1.584-.097z"/>
    <path d="M240.677 24.384l-1.632 4.561c-.528 1.296-1.488 2.929-2.88 4.272-1.392 1.345-3.168 2.4-5.232 2.4-1.536 0-2.88-.624-3.648-1.776-1.296-1.776-1.104-4.272-.384-6.145l5.328-14.497c.336-.912 1.249-1.344 2.161-1.008.912.336 1.392 1.248 1.056 2.16l-5.328 14.593c-.384 1.104-.432 2.353-.096 2.929.048.048.144.144.288.191.096.097.288.145.624.145.624 0 1.632-.384 2.544-1.152.912-.768 1.776-1.872 2.352-3.36l1.632-4.464c.336-.912 1.296-1.393 2.208-1.057s1.343 1.296 1.007 2.208zm-6.193-17.472l.624-1.681c.336-.912 1.248-1.344 2.16-1.008.912.336 1.392 1.248 1.056 2.16l-.672 1.68c-.192.721-.864 1.152-1.584 1.152-.144 0-.336-.048-.576-.096-.911-.335-1.344-1.295-1.008-2.207zM288.919 2.015c.96 0 1.728.768 1.728 1.728s-.768 1.729-1.728 1.729h-9.313c-.576.528-1.68 1.584-2.304 3.456l-2.016 5.521h2.304c.96 0 1.728.769 1.728 1.729 0 .912-.768 1.68-1.728 1.68h-3.552l-3.984 11.089c-.72 1.969-1.968 3.648-3.601 4.801-1.632 1.2-3.648 1.872-5.76 1.872-2.736 0-5.232-1.152-7.009-2.929-1.776-1.775-2.928-4.271-2.928-7.008s1.152-5.232 2.928-7.009c1.776-1.776 4.272-2.929 7.009-2.929 2.64 0 5.041.96 6.913 2.833.72.72.768 1.728.048 2.447-.336.337-.768.528-1.2.528-.48 0-.912-.191-1.248-.528-1.2-1.151-2.832-1.823-4.512-1.823-1.776 0-3.408.72-4.561 1.872-1.2 1.2-1.92 2.832-1.92 4.608 0 1.775.72 3.408 1.92 4.56 1.152 1.2 2.784 1.921 4.561 1.921 2.736 0 5.232-1.681 6.145-4.368l3.552-9.938h-2.592c-.96 0-1.728-.768-1.728-1.68 0-.96.768-1.729 1.728-1.729h3.84l2.4-6.721c.336-.912.72-1.632 1.152-2.256h-8.881c-1.008 0-1.824.864-1.824 1.872s.816 1.824 1.824 1.824c.528 0 .96-.192 1.296-.528s.768-.528 1.248-.528c.912 0 1.728.816 1.728 1.729 0 .48-.192.864-.528 1.2-1.056 1.056-2.304 1.584-3.745 1.584-1.488 0-2.784-.576-3.744-1.536s-1.536-2.256-1.536-3.744.576-2.784 1.536-3.744c.96-.96 2.256-1.584 3.744-1.584h22.61zM304.182 24.384l-1.632 4.513c-.528 1.296-1.488 2.977-2.881 4.32-1.392 1.345-3.168 2.4-5.232 2.4-1.632 0-2.88-.576-3.696-1.776l-.144-.288c-.048-.048-.096-.144-.145-.24-1.776 1.393-3.888 2.305-6 2.305-1.968 0-3.648-.72-4.608-2.208-1.104-1.584-1.248-3.456-.528-5.616l5.329-14.594c.336-.912 1.296-1.393 2.208-1.056.912.336 1.344 1.296 1.008 2.208l-5.28 14.593c-.384 1.009-.384 1.872.048 2.496s1.248.769 1.824.769c1.152 0 2.448-.528 3.552-1.344 1.104-.769 1.968-1.873 2.4-3.072v-.049l5.329-14.545c.336-.912 1.248-1.393 2.16-1.056.912.336 1.392 1.296 1.056 2.208l-5.328 14.545c-.385 1.152-.433 2.448-.048 2.977.048.048.096.144.239.191.097.097.288.145.624.145.624 0 1.633-.384 2.593-1.152.912-.768 1.776-1.824 2.304-3.313l1.633-4.512c.336-.912 1.296-1.345 2.208-1.009.911.337 1.343 1.248 1.007 2.16z"/>
    <path d="M324.054 24.384l-1.632 4.513c-.528 1.296-1.488 2.977-2.881 4.32-1.392 1.345-3.168 2.4-5.232 2.4-1.584 0-2.88-.672-3.696-1.776-.624-.912-.863-1.968-.863-3.072s.191-2.16.527-3.072l3.313-8.977c.336-1.104.336-1.92-.096-2.496-.433-.624-1.2-.769-1.824-.769-1.152 0-2.4.528-3.505 1.297-1.104.815-1.968 1.92-2.399 3.12l-5.329 14.641c-.24.721-.864 1.104-1.584 1.104-.144 0-.384-.048-.624-.096-.912-.336-1.344-1.297-1.008-2.209l5.328-14.593c.048-.144.096-.288.145-.432l.144-.337c.048-.048.048-.144.048-.191s0-.096.048-.145c.145-.432.24-.863.24-1.248 0-.336-.048-.624-.144-.768 0-.096-.145-.145-.385-.145-.96 0-1.728-.768-1.728-1.68 0-.96.768-1.729 1.728-1.729 1.393 0 2.448.528 3.217 1.584l.144.192c0 .096.049.192.097.24 1.68-1.296 3.648-2.017 5.568-2.017 2.064 0 3.648.721 4.656 2.208 1.104 1.536 1.2 3.553.48 5.617l-3.313 9.024c-.384 1.152-.433 2.4-.048 2.977.048.048.096.144.191.191.097.049.336.097.672.097 1.009 0 2.112-.624 2.977-1.536s1.536-1.969 1.92-2.929l1.633-4.512c.336-.912 1.296-1.345 2.208-1.009s1.343 1.301 1.007 2.213z"/>
    <path d="M321.171 32.738c-.576-.769-1.104-1.921-1.248-3.505-.191-1.536.048-3.504.96-6 1.152-3.12 3.024-5.953 5.329-7.969 2.256-2.017 4.8-3.217 7.152-3.217 1.776 0 3.12.528 4.032 1.633.576.72 1.296 1.92.96 3.792-.144.96-1.008 1.632-1.92 1.488-.96-.145-1.632-1.009-1.488-1.969.048-.144.048-.336.048-.575 0-.192-.048-.337-.191-.48-.24-.336-.721-.48-1.44-.48-1.488 0-3.313.912-4.992 2.448-1.729 1.585-3.313 3.841-4.272 6.529-1.008 2.735-1.057 4.992-.145 6.336.912 1.296 2.353 1.44 3.169 1.44 2.88 0 5.904-1.057 8.448-2.688 2.496-1.632 4.513-3.84 5.425-6.288.336-.912 1.296-1.393 2.208-1.057s1.344 1.296 1.008 2.208c-1.152 3.072-3.6 5.905-6.672 7.921-3.121 2.017-6.817 3.313-10.417 3.313-2.498 0-4.658-1.008-5.954-2.88z"/>
    <path d="M353.092 24.384l-1.632 4.561c-.528 1.296-1.488 2.929-2.88 4.272-1.393 1.345-3.169 2.4-5.232 2.4-1.537 0-2.881-.624-3.648-1.776-1.297-1.776-1.104-4.272-.385-6.145l5.329-14.497c.336-.912 1.248-1.344 2.16-1.008s1.392 1.248 1.056 2.16l-5.328 14.593c-.384 1.104-.433 2.353-.096 2.929.048.048.144.144.287.191.097.097.288.145.625.145.624 0 1.632-.384 2.544-1.152.912-.768 1.776-1.872 2.352-3.36l1.633-4.464c.336-.912 1.296-1.393 2.208-1.057s1.343 1.296 1.007 2.208zm-6.193-17.472l.624-1.681c.336-.912 1.248-1.344 2.16-1.008.912.336 1.393 1.248 1.057 2.16l-.673 1.68c-.191.721-.863 1.152-1.584 1.152-.144 0-.336-.048-.576-.096-.912-.335-1.344-1.295-1.008-2.207z"/>
    <path d="M375.029 24.384c-.912 2.305-2.448 4.657-4.704 6.385-2.257 1.776-5.089 2.977-8.497 2.977h-.432c-.145 0-.288 0-.433-.048-1.872 1.2-3.937 1.92-6 1.92-4.081 0-6.001-3.36-6.145-6.816-.145-3.408 1.439-7.249 3.264-9.985 1.824-2.688 4.081-4.752 6.577-5.904 1.2-.576 2.4-.864 3.6-.864 3.024 0 5.232 1.969 5.953 5.089.191.912-.384 1.824-1.345 2.016-.911.192-1.823-.384-2.016-1.296-.336-1.584-1.2-2.4-2.593-2.4-1.487 0-3.264.912-4.944 2.448-1.728 1.585-3.312 3.841-4.272 6.529-1.296 3.312-.863 5.664-.096 6.769.48.672 1.152 1.008 2.017 1.008.624 0 1.296-.145 2.016-.384-.239-.192-.384-.433-.527-.673-1.297-1.775-1.488-4.224-.576-6.769 1.392-3.84 4.224-5.856 7.057-5.664 1.92.144 3.456 1.393 3.888 3.12.96 2.929-.624 6.192-1.775 7.969 3.408-1.152 5.76-3.889 6.72-6.576.337-.912 1.297-1.345 2.209-1.009.911.335 1.39 1.246 1.054 2.158zm-11.472-1.536l-.048-.096-.049-.144c-.048-.288-.336-.433-.768-.433-.048-.048-.096-.048-.145-.048-1.104 0-2.496.912-3.408 3.456-.527 1.488-.527 2.688.097 3.601.336.432.672.672 1.008.816 1.344-1.104 2.448-2.545 3.024-4.129.432-1.246.528-2.254.289-3.023z"/>
    <path d="M394.852 24.384l-1.632 4.513c-.528 1.296-1.488 2.977-2.881 4.32-1.392 1.345-3.168 2.4-5.232 2.4-1.584 0-2.88-.672-3.696-1.776-.624-.912-.863-1.968-.863-3.072s.191-2.16.527-3.072l3.313-8.977c.336-1.104.336-1.92-.096-2.496-.433-.624-1.2-.769-1.824-.769-1.152 0-2.4.528-3.505 1.297-1.104.815-1.968 1.92-2.399 3.12l-5.329 14.641c-.239.721-.864 1.104-1.584 1.104-.144 0-.384-.048-.624-.096-.912-.336-1.344-1.297-1.008-2.209l5.328-14.593c.048-.144.096-.288.145-.432l.144-.337c.048-.048.048-.144.048-.191s0-.096.048-.145c.145-.432.24-.863.24-1.248 0-.336-.048-.624-.144-.768 0-.096-.145-.145-.385-.145-.96 0-1.728-.768-1.728-1.68 0-.96.768-1.729 1.728-1.729 1.393 0 2.448.528 3.217 1.584l.144.192c0 .096.049.192.097.24 1.68-1.296 3.648-2.017 5.568-2.017 2.064 0 3.648.721 4.656 2.208 1.104 1.536 1.2 3.553.48 5.617l-3.313 9.024c-.384 1.152-.433 2.4-.048 2.977.048.048.096.144.191.191.097.049.336.097.672.097 1.009 0 2.112-.624 2.977-1.536s1.536-1.969 1.92-2.929l1.633-4.512c.336-.912 1.296-1.345 2.208-1.009s1.343 1.301 1.007 2.213z"/>
    <path d="M418.229 24.384l-1.633 4.513c-.527 1.296-1.488 2.977-2.88 4.32-1.393 1.345-3.168 2.4-5.232 2.4-1.632 0-2.881-.576-3.696-1.776-.336-.479-.576-1.008-.721-1.584-2.256 2.064-4.8 3.36-7.248 3.36-4.08 0-6.001-3.36-6.145-6.816-.145-3.408 1.44-7.249 3.264-9.985 1.824-2.688 4.081-4.752 6.577-5.904 1.2-.576 2.4-.864 3.601-.864 2.063 0 3.648.816 4.8 2.448l.145.145c0 .048.048.096.096.144l.576-1.584c.336-.912 1.296-1.393 2.208-1.056.912.336 1.344 1.296 1.008 2.208l-5.28 14.545c-.24.576-.336 1.152-.336 1.681 0 .575.096 1.008.288 1.296.048.048.096.144.192.191.096.097.336.145.672.145.624 0 1.632-.384 2.592-1.152.912-.768 1.776-1.824 2.305-3.313l1.632-4.512c.336-.912 1.296-1.393 2.208-1.057s1.342 1.295 1.007 2.207zm-16.418 5.329c1.681-1.536 3.313-3.793 4.272-6.48 1.2-3.313.816-5.665.048-6.769-.479-.673-1.152-1.009-2.016-1.009-1.488 0-3.265.912-4.944 2.448-1.729 1.585-3.313 3.841-4.272 6.529-1.297 3.312-.864 5.664-.097 6.769.48.672 1.152 1.008 2.017 1.008 1.391 0 3.263-.912 4.992-2.496z"/>
  </g>
  <path fill="none" stroke="#FFF" stroke-width="2" stroke-miterlimit="10" d="M143 23.288H0M585 23.288H442"/>
</svg>