<svg xmlns="http://www.w3.org/2000/svg" width="132.457" height="136" viewBox="0 0 132.457 136">
  <path fill="none" stroke="#D94E4F" stroke-width="5" stroke-linecap="round" stroke-linejoin="round" stroke-miterlimit="10" d="M25.998 38.22c7.122 8.308 15.955 12.916 26.546 13.693.158-2.172.04-4.27.503-6.232 2.29-9.722 14.19-13.264 21.49-6.452.52.484.952.703 1.642.452 2.378-.87 4.768-1.707 7.16-2.56-.926 2.69-2.703 4.896-5.156 6.61.045.093.09.187.137.28l6.61-1.792c-.117.217-.217.462-.364.677-1.39 2.034-3.064 3.802-5.118 5.17-.638.425-.832.89-.833 1.63-.024 10.14-3.346 19.063-10.143 26.598-5.877 6.514-13.26 10.232-21.967 11.326-8.177 1.027-15.888-.376-23.098-4.407-.53-.296-1.044-.625-1.525-1.005 6.924.562 13.086-1.254 18.873-5.584-3.008-.22-5.47-1.086-7.604-2.773-2.104-1.665-3.612-3.75-4.493-6.453h5.31c.02-.092.043-.183.063-.274-6.156-2.07-9.515-6.27-9.993-12.76l5.458 1.565c.06-.103.122-.202.183-.303-2.648-2.075-4.443-4.678-5.16-7.97-.72-3.29-.223-6.37 1.48-9.434z"/>
  <path fill="none" stroke="#D94E4F" stroke-width="5" stroke-linecap="round" stroke-linejoin="round" stroke-miterlimit="10" d="M99.942 121.5c-9.65 6.468-21.258 10.24-33.747 10.24-33.52 0-60.695-27.175-60.695-60.696S32.674 10.35 66.195 10.35s60.696 27.173 60.696 60.694c0 16.753-6.786 31.92-17.76 42.902"/>
  <path fill="none" stroke="#D94E4F" stroke-width="5" stroke-linecap="round" stroke-linejoin="round" stroke-miterlimit="10" d="M110.892 88.207v.592L85.63 108.27c-8.44-6.51-16.847-12.99-25.253-19.47v-.593c.613-1.967 2-2.603 3.986-2.588 7.394.056 14.79.02 22.184.02 7.017 0 14.033-.002 21.05 0 1.47 0 2.63.787 3.102 2.074.06.167.128.33.192.493z"/>
  <path fill="none" stroke="#D94E4F" stroke-width="5" stroke-linecap="round" stroke-linejoin="round" stroke-miterlimit="10" d="M60.376 112.663V87.308c.15.098.304.188.446.296 7.534 5.76 15.066 11.52 22.6 17.278 1.44 1.1 2.955 1.102 4.394.02 5.073-3.81 10.145-7.62 15.22-11.426 2.614-1.963 5.236-3.916 7.855-5.873v25.06c-.022.023-.056.04-.066.07-.606 1.8-1.572 2.494-3.474 2.494-7.133.002-14.264 0-21.397 0l-22.283.002c-1.572 0-2.737-.86-3.193-2.355-.022-.074-.066-.14-.1-.212z"/>
</svg>