<svg xmlns="http://www.w3.org/2000/svg" width="132.457" height="136" viewBox="0 0 132.457 136">
  <g fill="none" stroke="#D94E4F" stroke-width="5" stroke-linecap="round" stroke-linejoin="round" stroke-miterlimit="10">
    <path d="M126.092 81.224c-2.08 11.43-7.456 22.386-16.153 31.35-23.346 24.057-61.77 24.634-85.828 1.29C.054 90.518-.523 52.093 22.822 28.035 46.166 3.978 84.59 3.4 108.65 26.746c12.023 11.665 18.18 27.1 18.42 42.624"/>
    <path d="M16.542 69.813c.256-.37.452-.764.745-1.063 7.85-7.964 15.825-15.788 25.202-22.003 6.743-4.472 13.976-7.76 22.035-9.004 10.782-1.664 20.985.273 30.69 5.085 10.025 4.973 18.332 12.167 25.938 20.245 2.03 2.157 3.988 4.387 5.914 6.51-.096.28-.1.393-.157.45-8.02 8.196-16.07 16.366-25.897 22.477-7.408 4.606-15.336 7.83-24.063 8.877-9.652 1.163-18.775-.645-27.506-4.797-8.122-3.865-14.948-9.474-21.364-15.655-3.66-3.526-7.346-7.027-11.018-10.542-.17-.163-.315-.35-.52-.58zm32.36-.533c-.02 12.74 10.283 23.13 22.97 23.157 12.62.03 23.062-10.33 23.085-22.905.023-12.73-10.295-23.128-22.976-23.147-12.643-.022-23.056 10.31-23.077 22.895z"/>
  </g>
</svg>