<svg xmlns="http://www.w3.org/2000/svg" width="132.457" height="136" viewBox="0 0 132.457 136">
  <path fill="none" stroke="#D94E4F" stroke-width="5" stroke-linecap="round" stroke-linejoin="round" stroke-miterlimit="10" d="M22.655 25.748C11.845 36.893 5.287 52.162 5.54 68.912c.504 33.518 28.083 60.28 61.602 59.776 33.518-.502 60.28-28.083 59.776-61.6-.505-33.518-28.084-60.28-61.6-59.776-12.49.187-24.038 4.132-33.59 10.745 0 0-9.287 4.937 7.755 18.052"/>
  <path fill-rule="evenodd" clip-rule="evenodd" fill="#D94E4F" d="M36.71 68.9c-.503-.04-.84-.054-1.17-.098-1.292-.172-1.99-.902-1.994-2.228-.02-5.685-.02-11.368.002-17.053.005-1.432.792-2.163 2.265-2.18 2.09-.02 4.18-.005 6.56-.005-.403-.52-.666-.865-.933-1.208-3.26-4.18-3.154-10.16.25-14.214 3.392-4.034 9.227-5.272 13.81-2.67 1.503.854 2.972 2.16 3.864 3.622 2.24 3.666 4.147 7.536 6.175 11.33.258.486.442 1.012.77 1.777.302-.612.526-1.028.714-1.46 1.822-4.194 3.773-8.314 6.482-12.036 2.137-2.937 5.014-4.528 8.606-4.557 4.684-.04 8.276 2.058 10.346 6.28 2.036 4.154 1.525 8.2-1.214 11.947-.24.33-.498.646-.914 1.187 2.23 0 4.214-.005 6.2 0 1.952.007 2.628.67 2.63 2.6.006 5.128.002 10.256.002 15.384 0 2.944-.163 3.142-3.18 3.663v35.96c0 2.658-.506 3.175-3.11 3.175H39.667c-2.38 0-2.954-.57-2.955-2.945-.002-11.495-.002-22.99-.002-34.485V68.9zm4.162 35.065H56.75v-35.07H40.872v35.07zm35.06-.008h15.906v-35.02H75.93v35.02zm-14.975.004h10.736V68.906H60.957v35.056zM37.675 64.673h19.057V51.48H37.675v13.192zM95.02 51.478H75.965v13.2H95.02v-13.2zm-32.918-4.99c-1.9-4.237-3.675-8.314-6.4-11.868-1.927-2.512-5.085-3.31-8.05-2.14-2.853 1.125-4.76 4.1-4.534 7.07.25 3.32 2.27 6.06 5.415 6.42 4.27.49 8.59.504 12.89.71.185.01.375-.102.68-.193m8.398.21c5.227.087 10.23.445 15.064-1.14 2.36-.773 4.005-3.597 4.03-6.333.027-2.908-1.797-5.635-4.498-6.73-2.563-1.035-5.685-.582-7.38 1.318-3.288 3.685-5.088 8.22-7.215 12.886m-9.56 17.987h10.774V51.51H60.94v13.175z"/>
</svg>