<svg xmlns="http://www.w3.org/2000/svg" width="217" height="40" viewBox="0 0 217 40">
  <g fill="#FFF">
    <path d="M11.752 17.06c0-1.984-.064-3.586-.128-5.06h2.498l.16 2.66h.064c1.12-1.89 2.98-2.98 5.51-2.98 3.778 0 6.597 3.17 6.597 7.847 0 5.573-3.427 8.328-7.078 8.328-2.05 0-3.844-.897-4.772-2.435h-.064v8.424H11.75V17.06zm2.787 4.132c0 .417.03.8.127 1.153.513 1.954 2.21 3.3 4.228 3.3 2.98 0 4.708-2.436 4.708-5.99 0-3.075-1.633-5.733-4.612-5.733-1.92 0-3.747 1.345-4.26 3.46-.095.352-.19.768-.19 1.12v2.69zM44.137 19.623c0 5.733-4.003 8.23-7.72 8.23-4.163 0-7.43-3.074-7.43-7.974 0-5.158 3.428-8.2 7.688-8.2 4.45 0 7.462 3.235 7.462 7.943zm-12.267.16c0 3.395 1.922 5.957 4.676 5.957 2.69 0 4.708-2.53 4.708-6.02 0-2.627-1.313-5.926-4.644-5.926-3.298 0-4.74 3.075-4.74 5.99zM47.567 16.836c0-1.826-.032-3.395-.128-4.836h2.465l.128 3.075h.096c.704-2.082 2.433-3.395 4.323-3.395.288 0 .512.032.77.064v2.658c-.29-.064-.577-.064-.962-.064-1.984 0-3.394 1.473-3.778 3.587-.064.385-.096.865-.096 1.313V27.5h-2.82V16.837zM61.023 32.05c1.313-.096 2.402-.448 3.075-1.217.77-.865 1.09-2.082 1.09-5.797V12h2.817v14.124c0 3.01-.48 4.964-1.857 6.374-1.25 1.25-3.3 1.76-4.804 1.76l-.32-2.208zm7.303-24.405c0 .93-.64 1.73-1.793 1.73-1.025 0-1.698-.802-1.698-1.73 0-.96.705-1.762 1.762-1.762s1.73.8 1.73 1.762zM86.647 19.623c0 5.733-4.003 8.23-7.72 8.23-4.163 0-7.43-3.074-7.43-7.974 0-5.158 3.428-8.2 7.688-8.2 4.452 0 7.462 3.235 7.462 7.943zm-12.267.16c0 3.395 1.922 5.957 4.676 5.957 2.69 0 4.708-2.53 4.708-6.02 0-2.627-1.313-5.926-4.644-5.926-3.298 0-4.74 3.075-4.74 5.99zM91.775 20.264c.064 3.81 2.466 5.38 5.317 5.38 2.018 0 3.267-.352 4.292-.8l.513 2.018c-.993.448-2.723.993-5.188.993-4.773 0-7.624-3.17-7.624-7.847s2.754-8.327 7.27-8.327c5.093 0 6.406 4.42 6.406 7.27 0 .578-.032.994-.097 1.314h-10.89zm8.264-2.018c.03-1.76-.738-4.548-3.91-4.548-2.88 0-4.1 2.594-4.323 4.548h8.232zM106.256 4.762h2.818v22.74h-2.818V4.762zM124.866 26.958c-.736.352-2.37.897-4.452.897-4.676 0-7.72-3.17-7.72-7.91 0-4.773 3.27-8.264 8.328-8.264 1.666 0 3.14.417 3.908.834l-.64 2.146c-.674-.353-1.73-.737-3.27-.737-3.554 0-5.476 2.66-5.476 5.86 0 3.588 2.307 5.798 5.38 5.798 1.603 0 2.66-.383 3.46-.735l.482 2.113zM139.058 23.787c0 1.345.064 2.658.225 3.715h-2.53l-.225-1.954h-.096c-.865 1.217-2.53 2.306-4.74 2.306-3.14 0-4.74-2.21-4.74-4.452 0-3.747 3.33-5.797 9.32-5.765v-.32c0-1.25-.353-3.587-3.523-3.555-1.475 0-2.98.417-4.068 1.153l-.64-1.89c1.28-.8 3.17-1.345 5.123-1.345 4.74 0 5.894 3.235 5.894 6.31v5.797zm-2.723-4.196c-3.074-.063-6.565.48-6.565 3.492 0 1.857 1.217 2.69 2.626 2.69 2.05 0 3.363-1.28 3.812-2.594.097-.32.128-.64.128-.897v-2.69zM143.48 16.836c0-1.826-.032-3.395-.128-4.836h2.466l.13 3.075h.095c.704-2.082 2.434-3.395 4.324-3.395.288 0 .512.032.77.064v2.658c-.29-.064-.578-.064-.962-.064-1.986 0-3.396 1.473-3.78 3.587-.063.385-.096.865-.096 1.313V27.5h-2.82V16.837zM164.846 23.787c0 1.345.064 2.658.225 3.715h-2.53l-.224-1.954h-.096c-.865 1.217-2.53 2.306-4.74 2.306-3.14 0-4.74-2.21-4.74-4.452 0-3.747 3.33-5.797 9.32-5.765v-.32c0-1.25-.353-3.587-3.523-3.555-1.474 0-2.98.417-4.067 1.153l-.64-1.89c1.28-.8 3.17-1.345 5.123-1.345 4.74 0 5.894 3.235 5.894 6.31v5.797zm-2.723-4.196c-3.074-.063-6.565.48-6.565 3.492 0 1.857 1.217 2.69 2.626 2.69 2.05 0 3.363-1.28 3.812-2.594.097-.32.128-.64.128-.897v-2.69zM180.447 26.958c-.736.352-2.37.897-4.452.897-4.676 0-7.72-3.17-7.72-7.91 0-4.773 3.27-8.264 8.328-8.264 1.666 0 3.14.417 3.908.834l-.64 2.146c-.673-.353-1.73-.737-3.268-.737-3.555 0-5.477 2.66-5.477 5.86 0 3.588 2.307 5.798 5.38 5.798 1.603 0 2.66-.383 3.46-.735l.482 2.113zM194.64 23.787c0 1.345.063 2.658.224 3.715h-2.53l-.225-1.954h-.097c-.865 1.217-2.53 2.306-4.74 2.306-3.14 0-4.74-2.21-4.74-4.452 0-3.747 3.33-5.797 9.32-5.765v-.32c0-1.25-.353-3.587-3.523-3.555-1.474 0-2.98.417-4.067 1.153l-.64-1.89c1.28-.8 3.17-1.345 5.123-1.345 4.74 0 5.894 3.235 5.894 6.31v5.797zm-2.724-4.196c-3.074-.063-6.565.48-6.565 3.492 0 1.857 1.218 2.69 2.627 2.69 2.05 0 3.363-1.28 3.812-2.594.096-.32.127-.64.127-.897v-2.69zM198.486 24.65c.864.514 2.338 1.09 3.747 1.09 2.018 0 2.98-.993 2.98-2.306 0-1.345-.802-2.05-2.852-2.82-2.817-1.024-4.13-2.53-4.13-4.387 0-2.498 2.05-4.548 5.348-4.548 1.57 0 2.947.415 3.78.96l-.673 2.05c-.61-.385-1.73-.93-3.17-.93-1.667 0-2.564.96-2.564 2.114 0 1.28.897 1.858 2.915 2.66 2.66.992 4.068 2.337 4.068 4.643 0 2.754-2.146 4.676-5.766 4.676-1.697 0-3.267-.45-4.355-1.09l.674-2.112z"/>
  </g>
</svg>