<svg xmlns="http://www.w3.org/2000/svg" width="493.151" height="275.342" viewBox="0 0 493.151 275.342">
  <path fill="none" stroke="#D94E4F" id="top-lines" stroke-width="3" stroke-miterlimit="10" d="M92.178 11.2h-82M487.178 11.2h-82"/>
  <path fill="#D94E4F" stroke="#000000" id="i" class="letra" d="M50.1 164.018l-3.464 9.68c-1.12 2.75-3.158 6.214-6.113 9.067s-6.724 5.094-11.105 5.094c-3.26 0-6.113-1.325-7.743-3.77-2.75-3.77-2.343-9.068-.816-13.042l11.308-30.768c.714-1.937 2.65-2.854 4.585-2.14s2.955 2.647 2.242 4.584l-11.31 30.972c-.814 2.344-.916 4.992-.203 6.215.102.104.306.307.61.41.205.202.613.304 1.326.304 1.324 0 3.464-.814 5.4-2.444 1.935-1.63 3.77-3.974 4.992-7.132l3.464-9.475c.713-1.937 2.75-2.955 4.686-2.242s2.853 2.752 2.14 4.688m-13.143-37.085l1.325-3.566c.713-1.936 2.65-2.853 4.584-2.14 1.936.714 2.955 2.65 2.242 4.585l-1.427 3.566c-.406 1.53-1.832 2.446-3.36 2.446-.306 0-.714-.103-1.223-.204-1.936-.713-2.853-2.75-2.14-4.687"/>
  <path fill="#D94E4F" id="l" class="letra" d="M42.458 183.172c-1.63-2.444-2.343-5.298-2.343-8.253s.61-5.91 1.426-8.355l17.423-47.58c.713-1.936 2.75-2.955 4.687-2.242 1.935.713 2.852 2.75 2.14 4.687l-17.32 47.683c-.713 1.936-1.12 3.87-1.12 5.604 0 1.834.407 3.26 1.12 4.278.51.714 1.325 1.528 3.668 1.528 3.973 0 7.234-2.445 9.373-4.482 2.752-2.75 4.993-6.112 6.216-9.474l1.834-5.095c.713-1.935 2.75-2.852 4.687-2.14s2.954 2.752 2.24 4.688l-1.833 5.095c-1.63 4.38-4.483 8.66-8.05 12.226-4.583 4.38-9.372 6.52-14.466 6.52-5.3 0-8.152-2.548-9.68-4.688"/>
  <path fill="#D94E4F" id="u" class="letra" d="M118.87 164.018l-3.463 9.577c-1.12 2.75-3.16 6.316-6.113 9.17-2.955 2.854-6.724 5.094-11.106 5.094-3.463 0-6.112-1.224-7.844-3.77l-.306-.612c-.102-.102-.204-.306-.306-.51-3.77 2.955-8.252 4.89-12.735 4.89-4.177 0-7.743-1.528-9.78-4.686-2.344-3.362-2.65-7.336-1.12-11.92l11.308-30.972c.713-1.937 2.75-2.956 4.686-2.242 1.937.713 2.854 2.75 2.14 4.687l-11.207 30.972c-.815 2.14-.815 3.974.102 5.3.917 1.323 2.65 1.628 3.872 1.628 2.445 0 5.196-1.12 7.54-2.852 2.343-1.63 4.176-3.974 5.093-6.52v-.103l11.31-30.87c.713-1.936 2.648-2.955 4.584-2.24 1.936.712 2.955 2.75 2.242 4.686l-11.31 30.87c-.814 2.445-.917 5.195-.1 6.316.1.103.203.306.508.408.204.203.61.305 1.324.305 1.325 0 3.465-.814 5.502-2.444 1.936-1.63 3.77-3.87 4.89-7.03l3.465-9.575c.713-1.937 2.75-2.854 4.686-2.14 1.937.712 2.853 2.647 2.14 4.583"/>
  <path fill="#D94E4F" id="s" class="letra" d="M161.558 163.204l-.713 1.63-.61 1.834-1.428 4.075c-1.222 3.974-3.464 8.252-6.52 11.513-3.056 3.26-7.132 5.604-11.717 5.604-2.343 0-3.87-.713-4.992-1.527-3.158 1.323-6.215 1.527-8.558 1.527-1.12 0-2.853-.102-4.585-.814-1.732-.713-3.362-2.037-4.075-4.382-.917-3.157.713-6.825 3.872-8.966 3.26-2.037 8.456-2.75 13.652 1.63.102.103.306.306.51.408l.407.407c1.63-2.14 1.733-4.28.612-6.723-1.222-2.345-3.158-4.79-5.502-7.336l-3.566-3.566c-1.935-1.936-3.87-3.77-5.5-5.706l-4.484 13.04c-.713 1.63-1.834 2.447-3.464 2.447-.306 0-.713-.104-1.222-.206-1.937-.713-2.955-2.648-2.242-4.584l8.05-23.23c.712-1.936 2.75-2.954 4.685-2.24 1.936.713 2.955 2.75 2.242 4.687l-.41 1.02c-.1.203 0 .51.205 1.017.102.51.51 1.12 1.02 1.834 1.527 2.04 3.768 4.28 6.214 6.726 2.953 2.853 6.01 6.01 8.455 9.373 2.343 3.362 3.87 7.03 3.566 10.8-.203 2.344-1.12 4.482-2.648 6.622 2.343-.816 4.177-2.752 5.807-4.992 1.528-2.242 2.546-4.688 3.26-6.623 1.12-3.26 1.73-5.095 2.14-6.215l.508-1.12c.103-.204.103-.307.204-.41 1.12-1.935 2.75-2.85 4.687-2.138s2.852 2.645 2.138 4.582m-31.176 17.116c-1.324-.917-2.445-1.12-3.566-.714-.713.306-.916.51-1.222.815.204.103.713.103 1.426.103 1.324 0 2.445-.102 3.362-.203"/>
  <path fill="#D94E4F" id="t" class="letra" d="M190.795 163.917c-.407 1.224-1.324 3.464-2.65 6.01-1.323 2.548-3.157 5.503-5.297 8.255-5.298 6.418-11.31 9.678-18.135 9.678s-10.188-2.853-11.818-5.196c-2.75-3.77-2.955-9.067-.917-14.772l9.373-25.776h-3.972c-2.038 0-3.668-1.632-3.668-3.566 0-2.037 1.63-3.668 3.668-3.668H164l5.807-15.894c.714-1.936 2.75-2.954 4.687-2.24 1.936.712 2.853 2.75 2.14 4.686l-4.79 13.448h10.597c1.937 0 3.668 1.63 3.668 3.668 0 1.935-1.73 3.566-3.667 3.566h-13.244l-10.29 28.323c-.61 1.628-.917 3.157-.917 4.583 0 2.854.916 5.502 6.723 5.502 5.808 0 10.29-3.973 13.55-8.354 3.16-4.38 5.095-9.168 5.604-10.798.713-1.937 2.75-2.853 4.687-2.14 1.936.71 2.954 2.748 2.24 4.685"/>
  <path fill="#D94E4F" id="r" class="letra" d="M197.825 184.293c-1.324-1.937-1.834-4.178-1.834-6.52-.1-2.345.41-4.585 1.122-6.522l6.622-18.34c.306-.508.306-.916.102-1.12-.51-1.12-2.343-1.935-3.057-2.24l-.204-.103-4.075-1.63c-.203.51-.407 1.12-.61 1.732l-.612 1.833-5.298 14.67c-.713 1.937-2.75 2.854-4.687 2.14-1.935-.713-2.954-2.75-2.24-4.686l5.297-14.57 1.528-4.482c-4.177-2.852-5.705-6.01-6.01-8.863-.307-2.75 1.018-6.215 4.38-7.846 1.732-.814 3.464-.917 5.196-.203.815.407 2.038 1.02 2.955 2.24.916 1.325 1.833 3.26 1.934 6.114.102 1.53.102 2.955-.203 4.687l5.197 2.14c.407.102 1.833.714 3.26 1.63 1.426.918 2.955 2.343 3.872 4.28 1.017 2.036 1.12 4.277.202 6.825l-6.622 18.338c-.917 2.445-1.02 5.095-.204 6.316.102.102.306.306.51.407.204.104.61.206 1.324.206 2.343 0 4.483-1.326 6.42-3.26 1.935-1.938 3.36-4.18 4.074-6.216l3.465-9.68c.712-1.935 2.85-2.853 4.786-2.14 1.936.715 2.853 2.752 2.14 4.688l-3.566 9.68c-.917 2.75-3.158 6.315-6.01 9.168-2.955 2.852-6.827 5.096-11.31 5.096-3.26.002-6.113-1.324-7.845-3.77"/>
  <path fill="#D94E4F" id="a" class="letra" d="M276.068 164.017l-3.464 9.578c-1.12 2.752-3.158 6.316-6.112 9.17-2.956 2.853-6.725 5.094-11.105 5.094-3.465 0-6.113-1.224-7.846-3.77-.712-1.02-1.222-2.14-1.526-3.364-4.79 4.382-10.19 7.133-15.384 7.133-8.66 0-12.736-7.134-13.04-14.47-.307-7.232 3.055-15.383 6.927-21.19 3.87-5.705 8.66-10.086 13.957-12.53 2.548-1.224 5.095-1.835 7.642-1.835 4.38 0 7.743 1.73 10.187 5.196l.307.307c0 .102.102.203.203.306l1.223-3.362c.712-1.934 2.75-2.954 4.688-2.24 1.936.713 2.852 2.75 2.14 4.686l-11.208 30.87c-.51 1.224-.713 2.446-.713 3.567 0 1.223.203 2.14.61 2.75.103.104.204.307.408.408.204.204.715.307 1.428.307 1.324 0 3.464-.815 5.502-2.444 1.936-1.63 3.77-3.873 4.89-7.03l3.464-9.578c.712-1.935 2.75-2.954 4.688-2.24 1.933.71 2.85 2.748 2.136 4.682m-34.844 11.31c3.566-3.26 7.03-8.048 9.068-13.754 2.547-7.03 1.73-12.02.102-14.365-1.02-1.427-2.445-2.14-4.28-2.14-3.158 0-6.927 1.936-10.494 5.197-3.667 3.36-7.028 8.15-9.066 13.855-2.75 7.03-1.834 12.02-.205 14.365 1.02 1.426 2.445 2.14 4.28 2.14 2.953 0 6.926-1.936 10.594-5.297"/>
  <path fill="#D94E4F"  id="d" class="letra" d="M325.99 163.916l-3.465 9.578c-1.223 3.362-3.36 6.724-6.113 9.27-3.565 3.362-7.233 5.095-11.207 5.095-3.464 0-6.113-1.224-7.845-3.77-.713-1.122-1.223-2.242-1.528-3.363-4.89 4.38-10.29 7.132-15.486 7.132-8.863 0-12.837-7.235-13.143-14.57-.306-7.233 2.955-15.384 6.927-21.19 3.975-5.81 8.865-10.29 14.163-12.736 2.546-1.223 5.094-1.833 7.64-1.833 4.382 0 7.745 1.732 10.19 5.197l.305.306c0 .102.102.306.204.407l8.864-24.452c.713-1.936 2.75-2.954 4.687-2.24 1.936.71 2.954 2.75 2.24 4.685l-15.485 42.484-3.464 9.578c-.51 1.223-.714 2.445-.714 3.668 0 1.222.204 2.14.61 2.648.104.103.205.308.41.408.202.204.712.306 1.425.306 2.344 0 4.585-1.324 6.42-3.26s3.26-4.178 3.973-6.215l3.566-9.68c.713-1.937 2.75-2.853 4.686-2.14 1.936.713 2.853 2.75 2.14 4.686m-35.05 11.31c3.67-3.26 7.03-8.05 9.07-13.755 2.75-7.232 1.833-12.123.2-14.467-1.017-1.426-2.443-2.14-4.277-2.14-3.158 0-7.03 1.937-10.597 5.196-3.667 3.36-7.13 8.15-9.168 13.854-2.548 7.234-1.732 12.227-.103 14.57.918 1.324 2.344 2.037 4.28 2.037 2.955.003 6.928-1.933 10.596-5.295"/>
  <path fill="#D94E4F" id="o1" class="letra" d="M372.65 164.018c-1.937 4.89-5.197 9.884-9.985 13.552-4.79 3.77-10.8 6.315-18.033 6.315h-.917c-.306 0-.61 0-.917-.103-3.974 2.548-8.354 4.076-12.735 4.076-8.66 0-12.736-7.13-13.04-14.468-.308-7.233 3.055-15.384 6.927-21.192 3.87-5.704 8.66-10.086 13.958-12.53 2.547-1.222 5.094-1.834 7.64-1.834 6.42 0 11.105 4.177 12.635 10.8.407 1.936-.814 3.87-2.853 4.278-1.936.41-3.87-.814-4.28-2.75-.712-3.362-2.546-5.095-5.5-5.095-3.16 0-6.93 1.936-10.494 5.196-3.668 3.362-7.03 8.15-9.067 13.856-2.75 7.028-1.836 12.02-.205 14.364 1.02 1.426 2.445 2.14 4.28 2.14 1.323 0 2.75-.306 4.277-.815-.51-.407-.814-.918-1.12-1.428-2.75-3.77-3.158-8.965-1.223-14.365 2.953-8.15 8.965-12.43 14.976-12.022 4.075.306 7.336 2.955 8.253 6.623 2.036 6.215-1.326 13.143-3.77 16.912 7.232-2.445 12.225-8.252 14.262-13.96.714-1.934 2.75-2.85 4.688-2.138 1.933.716 2.952 2.65 2.24 4.586m-24.352-3.26l-.103-.204-.1-.306c-.104-.61-.715-.917-1.632-.917-.103-.1-.203-.1-.306-.1-2.343 0-5.297 1.935-7.233 7.335-1.12 3.158-1.12 5.705.204 7.64.713.918 1.426 1.428 2.14 1.733 2.853-2.344 5.195-5.4 6.418-8.763.918-2.646 1.122-4.787.612-6.417"/>
  <path fill="#D94E4F" id="s" class="letra" d="M415.03 163.204l-.714 1.63c-.103.306-.306.918-.61 1.834l-1.428 4.075c-1.223 3.974-3.464 8.252-6.52 11.513-3.058 3.26-7.133 5.604-11.717 5.604-2.343 0-3.87-.713-4.992-1.527-3.158 1.323-6.216 1.527-8.558 1.527-1.12 0-2.853-.102-4.585-.814-1.73-.713-3.362-2.037-4.075-4.382-.917-3.157.713-6.825 3.87-8.966 3.262-2.037 8.458-2.75 13.653 1.63.103.103.306.306.51.408l.407.407c1.63-2.14 1.732-4.28.61-6.723-1.222-2.345-3.157-4.79-5.5-7.336l-3.566-3.566c-1.936-1.936-3.87-3.77-5.502-5.706l-4.482 13.04c-.713 1.63-1.834 2.447-3.464 2.447-.306 0-.713-.104-1.223-.206-1.937-.713-2.955-2.648-2.24-4.584l8.048-23.23c.714-1.936 2.75-2.954 4.688-2.24 1.936.713 2.954 2.75 2.24 4.687l-.406 1.02c-.103.203 0 .51.203 1.017.103.51.51 1.12 1.02 1.834 1.527 2.04 3.77 4.28 6.215 6.726 2.954 2.853 6.01 6.01 8.456 9.373 2.342 3.362 3.87 7.03 3.565 10.8-.202 2.344-1.12 4.482-2.647 6.622 2.343-.816 4.177-2.752 5.807-4.992 1.528-2.242 2.548-4.688 3.26-6.623 1.122-3.26 1.732-5.095 2.14-6.215l.51-1.12c.103-.204.103-.307.204-.41 1.12-1.935 2.75-2.85 4.687-2.138s2.852 2.645 2.14 4.582m-31.177 17.116c-1.325-.917-2.445-1.12-3.566-.714-.713.306-.917.51-1.223.815.204.103.714.103 1.427.103 1.325 0 2.446-.102 3.363-.203M206.588 223.62c-1.936-.713-2.852-2.75-2.14-4.687l1.224-3.668h-87.276c-7.64 0-12.94 2.955-16.505 5.908-1.832 1.53-3.157 2.854-3.972 4.076-.917 1.222-1.324 1.833-1.324 1.936-.714 1.223-1.834 1.834-3.26 1.834-.918 0-2.955-.714-3.465-2.65-.51-1.935-.205-2.14 2.14-5.5 2.342-3.26 6.825-7.44 13.855-10.597 3.566-1.528 7.743-2.344 12.53-2.344h89.925l2.14-5.808c.714-1.936 2.75-2.853 4.686-2.14 1.936.713 2.854 2.65 2.14 4.585M217.287 204.568l-6.012 16.81c-.713 1.63-1.834 2.446-3.465 2.446"/>
  <path fill="#D94E4F" id="re" class="letra" d="M439.785 172.882c0 10.188-5.4 20.58-14.468 28.323-3.77 3.26-9.17 6.725-16.505 9.476-7.337 2.75-16.607 4.585-28.12 4.585H232.667l-2.14 6.113c-.712 1.63-1.833 2.445-3.463 2.445-.306 0-.714-.102-1.223-.205-1.934-.713-2.85-2.75-2.138-4.686l6.01-16.81c.714-1.937 2.75-2.853 4.686-2.14 1.937.71 2.854 2.648 2.14 4.584l-1.222 3.362h145.376c10.494 0 18.747-1.63 25.268-4.075 6.52-2.344 11.31-5.4 14.67-8.252 7.44-6.42 11.92-14.67 11.92-22.72 0-3.26-.813-6.623-2.75-9.17-1.936-2.547-5.094-4.28-9.577-4.28-2.14 0-4.278 2.243-5.4 5.197-.712 1.937-2.546 3.058-4.48 2.344s-3.058-2.648-2.345-4.584c1.936-6.113 6.93-10.19 12.226-10.19 6.113 0 11.003 2.04 14.57 6.217 3.157 3.67 4.99 8.763 4.99 14.47M166.134 80.757c-2.895 3.158-6.93 5.176-11.492 5.527 3.422 5 4.474 9.386 3.246 13.334 0 .087 0 .175-.087.175l-5.526 15.527c-1.492 4.21-.79 7.018.35 8.773.527.965 1.14 1.578 1.755 2.018l.964.702c1.667.7 2.193 2.632 1.492 4.123-.615 1.14-1.667 1.754-2.807 1.754-.528 0-.966-.09-1.405-.264-2.018-.965-4.387-3.07-5.965-6.315-1.58-3.158-2.28-7.37-.263-12.896l5.526-15.438c.44-1.755-.088-3.86-1.14-5.966-1.14-2.106-2.808-4.035-4.21-5.7l-5.44 14.91c-1.316 3.51-3.51 6.493-6.404 8.598-2.895 2.105-6.405 3.246-10.177 3.246-4.824 0-9.21-2.017-12.368-5.175-3.158-3.16-5.176-7.546-5.176-12.37 0-4.826 2.017-9.21 5.175-12.37 3.157-3.158 7.544-5.175 12.368-5.175 4.738 0 8.86 1.667 12.282 5 .614.614.965 1.404.965 2.193 0 1.666-1.404 3.158-3.07 3.158-.878.088-1.667-.264-2.282-.877-2.192-2.194-4.824-3.247-7.895-3.247-3.157 0-5.964 1.23-7.982 3.246-2.104 2.105-3.332 4.91-3.332 8.07 0 3.158 1.228 5.964 3.333 7.982 2.02 2.105 4.826 3.334 7.983 3.334 4.913 0 9.036-3.07 10.703-7.633l9.474-26.14c1.14-3.86 3.684-6.668 5.79-8.51 1.052-.965 2.017-1.666 2.806-2.106 1.667-.877 2.194-1.402 3.773-.79 1.578.615 2.367 2.457 1.753 4.036-.263.79-.79 1.405-1.58 1.754l-.788.44c-1.14.613-2.72 1.754-4.123 3.683-.79.966-1.316 2.106-1.755 3.422v.176l-1.58 4.21c1.492.614 2.984.966 4.475.966 3.07 0 5.79-1.23 7.895-3.246 2.018-2.018 3.246-4.825 3.246-7.895 0-3.07-1.228-5.79-3.246-7.895-2.105-2.02-4.825-3.247-7.895-3.247-3.07 0-5.877 1.23-7.895 3.248-2.017 2.104-3.246 4.825-3.246 7.895 0 1.666-1.402 3.07-3.07 3.07-1.754 0-3.157-1.404-3.157-3.07 0-4.826 1.93-9.124 5.088-12.28 3.16-3.16 7.457-5.09 12.282-5.09s9.123 1.93 12.28 5.09c3.16 3.156 5.09 7.454 5.09 12.28 0 4.56-1.843 8.685-4.738 11.754M168.327 107.776c-1.843-2.545-2.37-5.615-2.28-8.773.086-3.07.876-6.053 1.84-8.596 2.106-5.703 5.615-10.88 9.738-14.563 4.123-3.685 8.772-5.877 13.07-5.877 3.597 0 6.14 1.053 7.72 2.543 1.58 1.492 2.193 3.597 2.193 5.44 0 4.473-3.245 9.823-8.772 14.034-5.614 4.475-12.544 6.93-19.562 7.194-.088 4.123 1.754 6.58 4.21 7.193 1.23.265 2.28.44 3.07.44 5 0 10.09-1.667 14.3-4.298 4.122-2.632 7.37-6.23 8.86-10.44.613-1.666 2.368-2.544 4.034-1.93 1.668.614 2.545 2.37 1.93 4.036-2.018 5.526-6.053 10.176-11.228 13.51-5.175 3.333-11.49 5.35-17.895 5.35-5 .002-8.772-1.753-11.228-5.262M181.66 80.67c-3.158 2.895-6.053 7.017-7.807 11.93l-.088.088c0 .086 0 .086-.087.174 3.42-.35 6.403-1.228 8.86-2.368 2.368-1.14 4.122-2.368 5.438-3.42 4.474-3.423 6.404-7.106 6.404-9.124 0-.263 0-.702-.44-1.052-.262-.176-.613-.352-1.05-.527-.528-.087-1.23-.175-2.194-.175-2.72 0-5.967 1.668-9.036 4.474"/>
  <path fill="#D94E4F" id="g" class="letra" d="M251.484 94.355v.088l-1.49 4.21c-2.02 5.35-5.527 9.21-9.738 12.28-4.3 3.07-9.298 5.265-13.947 7.37l-3.95 10.878c-.964 2.456-2.543 5-4.736 6.93-2.194 1.93-4.912 3.247-7.72 3.247-2.456 0-4.56-.878-5.877-2.896-2.017-2.806-1.58-6.754-.614-9.472 1.14-3.246 3.684-5.878 6.842-7.983 3.158-2.105 7.106-3.773 11.053-5.44l1.404-3.77c-3.42 2.367-6.754 3.508-10 3.508-7.632 0-11.053-6.14-11.317-12.456-.263-6.315 2.544-13.334 5.965-18.334 3.422-5 7.633-8.86 12.194-10.966 2.193-1.052 4.386-1.578 6.58-1.578 3.77 0 6.754 1.49 8.86 4.472l.174.263c.088.088.088.264.176.352l1.14-2.982c.614-1.668 2.368-2.545 4.036-1.93 1.666.613 2.455 2.367 1.842 4.034l-6.755 18.51v.086l-6.227 17.194c3.245-1.49 6.315-3.333 8.86-5.526 2.543-2.106 4.648-4.738 5.788-7.983l1.492-4.122.088-.175c.79-1.842 2.63-2.458 4.035-1.842 1.402.613 2.542 2.017 1.84 4.035m-29.65 8.07c3.16-2.806 6.14-6.93 7.895-11.843 2.194-6.228 1.493-10.526.088-12.544-.877-1.14-2.105-1.754-3.683-1.754-2.72 0-5.965 1.667-9.123 4.473-3.16 2.895-6.14 7.018-7.896 11.93-2.192 6.316-1.49 10.527-.088 12.545.79 1.14 2.018 1.755 3.685 1.755 2.545 0 5.966-1.667 9.124-4.562m-3.51 19.3c-4.473 2.104-7.895 4.386-8.947 7.456-.614 1.667-.614 3.07-.175 3.685 0 .088.263.175.702.175 2.018 0 5.263-2.457 6.578-6.052l1.843-5.264z"/>
  <path fill="#333" id="a" class="letra"  d="M294.556 92.513l-2.982 8.246c-.965 2.367-2.72 5.437-5.264 7.895-2.545 2.456-5.79 4.386-9.563 4.386-2.982 0-5.264-1.052-6.755-3.244-.614-.878-1.052-1.843-1.315-2.896-4.123 3.773-8.77 6.14-13.246 6.14-7.456 0-10.964-6.14-11.228-12.455-.263-6.23 2.632-13.246 5.965-18.247 3.334-4.912 7.457-8.685 12.018-10.79 2.193-1.053 4.387-1.578 6.58-1.578 3.77 0 6.666 1.49 8.77 4.472l.265.264c0 .088.088.176.176.264l1.053-2.895c.612-1.668 2.368-2.545 4.034-1.93 1.666.614 2.455 2.368 1.842 4.035l-9.648 26.58c-.44 1.053-.615 2.105-.615 3.07 0 1.053.176 1.843.527 2.368.088.088.174.264.35.352.176.176.615.263 1.23.263 1.14 0 2.98-.703 4.735-2.105 1.668-1.404 3.246-3.334 4.21-6.054l2.983-8.245c.615-1.67 2.37-2.546 4.035-1.93 1.667.61 2.456 2.366 1.843 4.033m-30.002 9.737c3.07-2.807 6.053-6.93 7.807-11.842 2.194-6.054 1.493-10.35.09-12.37-.878-1.227-2.106-1.842-3.685-1.842-2.72 0-5.965 1.667-9.035 4.474-3.158 2.895-6.053 7.017-7.808 11.93-2.368 6.053-1.58 10.352-.176 12.37.878 1.227 2.105 1.842 3.685 1.842 2.545 0 5.966-1.667 9.124-4.562"/>
  <path fill="#333" id="l2" class="letra" d="M287.8 109.004c-1.404-2.105-2.018-4.562-2.018-7.105 0-2.545.527-5.09 1.23-7.195l24.2-65.33c.614-1.668 2.368-2.546 4.034-1.93 1.668.613 2.457 2.368 1.842 4.035l-24.112 65.418c-.614 1.668-.965 3.334-.965 4.825 0 1.58.352 2.807.966 3.684.44.615 1.14 1.317 3.158 1.317 3.422 0 6.23-2.106 8.07-3.86 2.368-2.37 4.3-5.264 5.352-8.16l1.578-4.385c.615-1.668 2.37-2.458 4.035-1.843 1.667.614 2.544 2.368 1.93 4.035l-1.58 4.386c-1.403 3.772-3.858 7.457-6.93 10.527-3.946 3.77-8.07 5.614-12.456 5.614-4.563 0-7.017-2.193-8.334-4.036"/>
  <path fill="#D94E4F" id="o2" class="letra" d="M357.19 92.513c-1.67 4.21-4.476 8.508-8.6 11.667-4.122 3.246-9.298 5.44-15.526 5.44h-.79c-.263 0-.524 0-.788-.09-3.422 2.195-7.193 3.51-10.965 3.51-7.456 0-10.966-6.14-11.228-12.456-.264-6.23 2.63-13.246 5.965-18.247 3.332-4.912 7.455-8.685 12.018-10.79 2.193-1.053 4.386-1.578 6.578-1.578 5.527 0 9.563 3.594 10.88 9.297.348 1.667-.702 3.333-2.458 3.684-1.666.353-3.332-.7-3.684-2.368-.614-2.895-2.192-4.386-4.737-4.386-2.72 0-5.965 1.667-9.035 4.474-3.16 2.896-6.053 7.017-7.807 11.93-2.368 6.053-1.577 10.352-.175 12.37.877 1.227 2.105 1.84 3.686 1.84 1.14 0 2.368-.26 3.684-.7-.438-.35-.7-.79-.964-1.23-2.37-3.244-2.72-7.72-1.053-12.368 2.543-7.018 7.72-10.703 12.894-10.35 3.512.262 6.318 2.542 7.107 5.7 1.756 5.352-1.14 11.317-3.244 14.563 6.227-2.106 10.525-7.106 12.28-12.018.614-1.668 2.368-2.457 4.036-1.843 1.665.616 2.542 2.282 1.93 3.95m-20.968-2.81l-.088-.174-.088-.262c-.088-.528-.613-.79-1.402-.79-.088-.087-.176-.087-.264-.087-2.018 0-4.563 1.667-6.23 6.316-.964 2.72-.964 4.913.176 6.58.614.788 1.23 1.228 1.843 1.49 2.456-2.017 4.474-4.65 5.526-7.544.79-2.28.965-4.123.526-5.527"/>
  <path fill="#D94E4F" id="s2" class="letra" d="M393.68 91.81l-.614 1.405-.527 1.58-1.228 3.508c-1.053 3.42-2.982 7.105-5.615 9.912-2.63 2.808-6.14 4.825-10.09 4.825-2.016 0-3.333-.614-4.297-1.315-2.72 1.14-5.352 1.315-7.37 1.315-.964 0-2.455-.088-3.946-.702-1.49-.613-2.895-1.754-3.51-3.77-.787-2.72.615-5.878 3.333-7.72 2.81-1.756 7.282-2.37 11.757 1.402.088.088.264.264.44.352l.35.35c1.403-1.842 1.49-3.684.526-5.79-1.053-2.017-2.72-4.123-4.74-6.316l-3.068-3.07c-1.666-1.666-3.332-3.246-4.736-4.913l-3.86 11.23c-.614 1.403-1.58 2.104-2.98 2.104-.265 0-.616-.087-1.054-.175-1.668-.614-2.545-2.28-1.93-3.948l6.93-20c.613-1.668 2.366-2.545 4.034-1.93 1.666.614 2.544 2.368 1.93 4.035l-.35.877c-.09.175 0 .438.175.877.09.438.44.965.878 1.578 1.316 1.755 3.246 3.685 5.352 5.79 2.545 2.456 5.176 5.176 7.28 8.07 2.02 2.896 3.335 6.054 3.07 9.3-.175 2.018-.964 3.86-2.28 5.7 2.018-.7 3.598-2.368 5-4.298 1.316-1.93 2.193-4.035 2.807-5.7.967-2.808 1.492-4.388 1.844-5.352l.44-.965c.087-.176.087-.264.175-.352.965-1.666 2.37-2.455 4.035-1.842 1.663.615 2.454 2.282 1.84 3.948m-26.843 14.738c-1.14-.79-2.105-.965-3.07-.614-.616.262-.79.438-1.053.702.174.088.613.088 1.227.088 1.142 0 2.106-.088 2.897-.176M411.035 31.644c-.438-1.666-2.193-2.28-2.982-2.28-1.23 0-2.193.526-2.807 1.58 0 .087-.353.612-1.14 1.665-.702 1.052-1.843 2.44-3.424 3.755-3.07 2.544-7.63 5.334-14.21 5.334H325.54l1.053-3.406c.613-1.667-.176-3.545-1.844-4.158-.44-.088-.79-.237-1.054-.237-1.402 0-2.367.67-2.982 2.074l-5.176 14.458c-.613 1.667.176 3.326 1.842 3.94 1.668.614 3.422-.09 4.037-1.757l1.842-4.916h63.213c4.123 0 7.72-.79 10.79-2.107 6.054-2.72 9.913-6.36 11.93-9.168 2.017-2.894 2.28-3.114 1.842-4.78M299.22 33.013c-.436-.088-.788-.176-1.05-.176-1.404 0-2.37.948-2.984 2.352l-1.842 5.51h-153.51c-9.913 0-17.897 1.332-24.212 3.7-6.317 2.37-10.965 5.228-14.21 8.035-7.81 6.667-12.458 15.553-12.458 24.325 0 4.913 1.578 9.27 4.3 12.427 3.07 3.596 6.958 5.335 12.22 5.335 1.39 0 2.704-.345 3.704-.946v-8.45c-1 1.856-2.2 3.153-3.705 3.153-3.86 0-6.416-1.494-8.084-3.686C95.722 82.4 95.1 79.504 95.1 76.7c0-6.93 3.9-14.037 10.304-19.564 2.894-2.455 7.038-5 12.65-7.017 5.616-2.106 12.742-3.42 21.777-3.42h151.23l-1.054 2.805c-.614 1.667.175 3.29 1.843 3.904 1.666.613 3.42-.2 4.035-1.866l5.176-14.484c.614-1.668-.175-3.434-1.843-4.047"/>
  <path fill="#FFF" d="M61.813 73.898c-.826 5.565-5.226 9.965-10.792 10.79 5.567.827 9.967 5.228 10.793 10.793.827-5.564 5.226-9.965 10.792-10.79-5.566-.827-9.965-5.227-10.792-10.792M416.813 73.898c-.826 5.565-5.226 9.965-10.79 10.79 5.564.827 9.964 5.228 10.79 10.793.826-5.564 5.227-9.965 10.792-10.79-5.565-.827-9.966-5.227-10.792-10.792"/>
  <path fill-rule="evenodd" clip-rule="evenodd" fill="#D94E4F" d="M82.805 252.69c2.402-5.563 4.8-11.13 7.19-16.698.156-.36.375-.505.765-.476.397.028.798.006 1.277.006M92.037 235.522c0 1.553.002 3.02 0 4.487-.005 3.357-.02 6.717-.01 10.075 0 .437-.127.705-.514.93-.955.556-1.346 1.604-1.052 2.666.276.99 1.22 1.73 2.245 1.754 1.067.026 2.057-.705 2.36-1.743.304-1.032-.065-2.086-.984-2.644-.43-.262-.578-.59-.575-1.075.026-4.564.04-9.13.06-13.697 0-.225.024-.448.04-.73.512 0 1.01-.07 1.472.03.235.052.48.38.59.638 1.208 2.79 2.388 5.59 3.58 8.387 1.122 2.635 2.234 5.274 3.385 7.897.373.853.36 1.615-.07 2.45-1.378 2.67-2.724 5.358-4.048 8.056-.397.808-.967 1.15-1.865 1.135-2.608-.04-5.215-.055-7.82-.028-.93.01-1.48-.35-1.882-1.183-1.33-2.772-2.703-5.522-4.082-8.27"/>
  <path fill-rule="evenodd" clip-rule="evenodd" fill="#FFF" d="M100.39 228.33c.853.627 1.756 1.2 2.553 1.893 3.142 2.735 4.903 6.182 5.124 10.363.035.655.235.883.904.858 1.302-.05 1.497.172 1.5 1.467.004 1.37.005 2.742-.01 4.113-.007.867-.316 1.166-1.177 1.172-1.44.007-2.88.008-4.322.002-.925-.004-1.273-.344-1.276-1.245-.006-1.463-.01-2.93.005-4.392.006-.754.364-1.103 1.1-1.127 1.448-.05 1.487-.056 1.264-1.547-.8-5.377-3.842-8.908-8.93-10.72-.254-.09-.524-.134-.845-.212-.03.282-.04.484-.07.688-.075.528-.37.858-.915.862-1.65.013-3.3.01-4.95-.006-.545-.006-.84-.33-.89-.873l-.067-.67c-1.77.384-3.303 1.118-4.683 2.16-3.095 2.338-4.8 5.47-5.2 9.317-.1.986-.078.994.944.998 1.113.006 1.392.283 1.394 1.4.003 1.37.01 2.74 0 4.11-.006.91-.35 1.25-1.27 1.255-1.463.006-2.927.006-4.39-.004-.782-.005-1.11-.313-1.12-1.087-.015-1.533-.017-3.067-.003-4.6.01-.775.334-1.063 1.13-1.076 1.356-.022 1.29-.03 1.426-1.39.462-4.564 2.634-8.146 6.357-10.8.43-.305.888-.572 1.326-1.016-.228-.02-.457-.06-.684-.06-5.97-.002-11.943.008-17.914-.01-.548 0-.81.168-1.02.686-.762 1.87-2.774 2.934-4.688 2.54-2.102-.435-3.562-2.15-3.58-4.21-.015-1.973 1.477-3.848 3.383-4.246 2.036-.43 4.07.568 4.863 2.48.247.593.562.715 1.14.714 7.296-.02 14.59-.02 21.887 0 .634 0 .786-.206.77-.802-.032-1.366.208-1.58 1.55-1.578 1.326.002 2.65 0 3.974.004.89.004 1.223.332 1.233 1.206.015 1.28-.143 1.155 1.16 1.155 7.132.005 14.265-.005 21.398.01.552 0 .85-.122 1.08-.688.775-1.908 2.75-2.894 4.85-2.51 1.858.34 3.327 2.127 3.41 4.15.078 1.87-1.36 3.78-3.2 4.244-2.024.515-4.116-.37-4.95-2.252-.343-.772-.78-.916-1.523-.912-5.694.025-11.385.014-17.077.014h-.946l-.025.173"/>
</svg>