<svg xmlns="http://www.w3.org/2000/svg" width="477" height="265.936" viewBox="0 0 477 265.936">
  <path fill="#282D40" d="M748-39.5H-276"/>
  <path fill="none" stroke="#D94E4F" stroke-width="3" stroke-miterlimit="10" d="M82 13H0M477 13h-82"/>
  <path fill="#D94E4F" d="M39.922 165.819l-3.464 9.679c-1.121 2.751-3.158 6.215-6.113 9.068s-6.724 5.094-11.105 5.094c-3.261 0-6.113-1.324-7.743-3.77-2.751-3.769-2.343-9.067-.816-13.041l11.309-30.768c.714-1.936 2.649-2.853 4.585-2.14s2.955 2.648 2.242 4.585l-11.309 30.972c-.815 2.343-.917 4.992-.204 6.215.102.102.306.305.611.408.204.203.612.305 1.325.305 1.324 0 3.464-.815 5.399-2.445 1.936-1.63 3.77-3.974 4.993-7.132l3.464-9.475c.713-1.936 2.75-2.954 4.686-2.242 1.936.713 2.853 2.751 2.14 4.687m-13.143-37.085l1.325-3.566c.713-1.936 2.649-2.853 4.584-2.14 1.936.714 2.955 2.649 2.242 4.585l-1.427 3.566c-.407 1.529-1.833 2.446-3.362 2.446-.305 0-.713-.103-1.222-.204-1.936-.713-2.853-2.751-2.14-4.687"/>
  <path fill="#D94E4F" d="M32.28 184.973c-1.63-2.445-2.343-5.298-2.343-8.253 0-2.954.611-5.909 1.426-8.354l17.422-47.58c.713-1.935 2.751-2.954 4.687-2.241 1.935.713 2.852 2.751 2.14 4.687l-17.321 47.681c-.713 1.936-1.12 3.872-1.12 5.604 0 1.834.407 3.26 1.12 4.278.51.714 1.325 1.529 3.668 1.529 3.973 0 7.234-2.446 9.373-4.483 2.751-2.751 4.992-6.113 6.215-9.475l1.834-5.094c.713-1.936 2.751-2.853 4.687-2.14s2.954 2.751 2.241 4.687l-1.834 5.094c-1.63 4.381-4.483 8.661-8.049 12.226-4.584 4.381-9.373 6.521-14.467 6.521-5.298 0-8.151-2.547-9.679-4.687"/>
  <path fill="#D94E4F" d="M108.692 165.819l-3.464 9.577c-1.121 2.751-3.159 6.317-6.113 9.17-2.955 2.853-6.724 5.094-11.106 5.094-3.463 0-6.112-1.223-7.844-3.77l-.306-.611c-.102-.102-.204-.306-.306-.51-3.769 2.955-8.252 4.891-12.735 4.891-4.177 0-7.743-1.529-9.781-4.687-2.343-3.362-2.649-7.336-1.12-11.92l11.309-30.972c.713-1.936 2.75-2.955 4.686-2.241 1.936.712 2.853 2.75 2.139 4.686l-11.207 30.972c-.815 2.139-.815 3.973.102 5.298s2.649 1.63 3.872 1.63c2.445 0 5.196-1.121 7.539-2.852 2.344-1.631 4.177-3.974 5.094-6.521v-.102l11.309-30.87c.714-1.936 2.649-2.955 4.585-2.241 1.936.712 2.955 2.75 2.242 4.686l-11.31 30.87c-.814 2.445-.917 5.196-.101 6.317.101.102.204.305.509.408.204.203.611.305 1.324.305 1.325 0 3.465-.815 5.502-2.445 1.936-1.63 3.77-3.872 4.89-7.03l3.465-9.577c.713-1.936 2.75-2.853 4.686-2.14 1.936.714 2.853 2.649 2.14 4.585"/>
  <path fill="#D94E4F" d="M151.379 165.004l-.713 1.63c-.102.305-.305.917-.611 1.834l-1.427 4.075c-1.222 3.973-3.464 8.252-6.52 11.513-3.056 3.259-7.132 5.603-11.717 5.603-2.343 0-3.871-.713-4.992-1.528-3.158 1.324-6.215 1.528-8.558 1.528-1.12 0-2.853-.102-4.585-.815-1.732-.713-3.362-2.037-4.075-4.381-.917-3.158.713-6.826 3.872-8.966 3.26-2.037 8.456-2.75 13.652 1.631.102.101.306.305.509.407l.408.407c1.63-2.139 1.732-4.279.611-6.723-1.222-2.344-3.158-4.789-5.502-7.336l-3.566-3.566c-1.935-1.936-3.871-3.771-5.501-5.706l-4.483 13.041c-.713 1.63-1.834 2.446-3.464 2.446-.306 0-.713-.102-1.222-.205-1.937-.712-2.955-2.648-2.242-4.584l8.049-23.229c.713-1.936 2.751-2.955 4.686-2.241 1.936.713 2.955 2.75 2.242 4.686l-.408 1.019c-.101.204 0 .51.204 1.018.102.51.51 1.121 1.019 1.834 1.528 2.038 3.769 4.28 6.215 6.725 2.954 2.853 6.011 6.011 8.456 9.373 2.343 3.362 3.871 7.03 3.566 10.8-.204 2.343-1.121 4.482-2.649 6.622 2.343-.816 4.177-2.751 5.807-4.992 1.529-2.241 2.547-4.687 3.261-6.622 1.12-3.261 1.731-5.095 2.139-6.215l.509-1.121c.103-.204.103-.306.204-.408 1.121-1.936 2.751-2.852 4.687-2.139 1.937.714 2.854 2.649 2.139 4.585m-31.175 17.117c-1.324-.917-2.445-1.121-3.566-.714-.713.306-.916.51-1.222.816.204.101.713.101 1.426.101 1.324 0 2.445-.101 3.362-.203"/>
  <path fill="#D94E4F" d="M180.617 165.717c-.407 1.223-1.324 3.464-2.649 6.011-1.324 2.547-3.158 5.502-5.298 8.253-5.298 6.419-11.309 9.678-18.135 9.678s-10.188-2.853-11.818-5.196c-2.751-3.769-2.955-9.067-.917-14.772l9.373-25.777H147.2c-2.038 0-3.668-1.631-3.668-3.566 0-2.037 1.63-3.668 3.668-3.668h6.622l5.807-15.894c.714-1.936 2.751-2.954 4.687-2.241 1.936.713 2.853 2.751 2.139 4.687l-4.788 13.448h10.596c1.936 0 3.667 1.631 3.667 3.668 0 1.935-1.731 3.566-3.667 3.566h-13.245l-10.29 28.324c-.611 1.629-.917 3.158-.917 4.584 0 2.853.917 5.501 6.724 5.501 5.808 0 10.29-3.972 13.551-8.354 3.158-4.381 5.094-9.169 5.603-10.799.713-1.936 2.751-2.852 4.687-2.14 1.936.713 2.954 2.751 2.241 4.687"/>
  <path fill="#D94E4F" d="M187.647 186.094c-1.324-1.937-1.834-4.178-1.834-6.521-.102-2.343.408-4.584 1.121-6.52l6.622-18.34c.306-.509.306-.917.102-1.12-.509-1.121-2.343-1.936-3.057-2.241l-.203-.103-4.075-1.63c-.204.51-.408 1.121-.612 1.733l-.611 1.834-5.298 14.671c-.713 1.935-2.751 2.852-4.687 2.139-1.935-.714-2.954-2.751-2.241-4.687l5.298-14.57 1.528-4.483c-4.177-2.852-5.705-6.011-6.011-8.863-.306-2.751 1.019-6.215 4.381-7.846 1.732-.814 3.464-.917 5.196-.203.815.407 2.038 1.019 2.955 2.241.917 1.324 1.834 3.26 1.935 6.113.102 1.529.102 2.955-.203 4.687l5.196 2.14c.407.101 1.833.713 3.261 1.63 1.425.917 2.954 2.342 3.871 4.279 1.018 2.037 1.121 4.278.203 6.826l-6.622 18.339c-.917 2.445-1.019 5.094-.204 6.316.102.102.306.306.51.407.204.103.611.205 1.324.205 2.343 0 4.483-1.325 6.419-3.26 1.936-1.937 3.362-4.178 4.075-6.215l3.465-9.68c.713-1.935 2.851-2.853 4.787-2.139 1.936.714 2.853 2.751 2.14 4.687l-3.566 9.679c-.917 2.751-3.158 6.316-6.011 9.169-2.954 2.852-6.826 5.096-11.309 5.096-3.26.001-6.113-1.326-7.845-3.77"/>
  <path fill="#D94E4F" d="M265.89 165.818l-3.464 9.578c-1.12 2.751-3.158 6.316-6.112 9.169-2.956 2.853-6.725 5.094-11.105 5.094-3.465 0-6.113-1.222-7.846-3.769-.713-1.019-1.223-2.14-1.527-3.363-4.789 4.381-10.189 7.132-15.384 7.132-8.66 0-12.736-7.132-13.041-14.468-.306-7.233 3.056-15.383 6.928-21.191 3.871-5.705 8.659-10.086 13.957-12.531 2.548-1.223 5.095-1.834 7.642-1.834 4.379 0 7.743 1.731 10.187 5.196l.307.306c0 .102.102.203.203.305l1.223-3.362c.712-1.935 2.751-2.955 4.688-2.241 1.936.713 2.852 2.75 2.139 4.686l-11.207 30.871c-.51 1.222-.713 2.445-.713 3.566 0 1.222.203 2.139.611 2.75.102.103.203.306.407.408.203.203.714.306 1.427.306 1.324 0 3.464-.816 5.502-2.445 1.936-1.63 3.77-3.873 4.89-7.031l3.464-9.577c.712-1.935 2.751-2.954 4.688-2.241 1.933.713 2.849 2.751 2.136 4.686m-34.844 11.31c3.566-3.261 7.029-8.049 9.068-13.755 2.547-7.029 1.731-12.021.102-14.365-1.02-1.427-2.445-2.14-4.279-2.14-3.159 0-6.928 1.936-10.495 5.197-3.667 3.362-7.028 8.15-9.066 13.856-2.751 7.029-1.834 12.021-.205 14.365 1.02 1.426 2.446 2.14 4.28 2.14 2.954 0 6.927-1.936 10.595-5.298"/>
  <path fill="#D94E4F" d="M315.811 165.717l-3.464 9.578c-1.223 3.362-3.361 6.723-6.113 9.271-3.565 3.361-7.233 5.094-11.207 5.094-3.464 0-6.113-1.223-7.845-3.77-.713-1.121-1.223-2.241-1.528-3.362-4.891 4.381-10.29 7.132-15.486 7.132-8.863 0-12.837-7.234-13.143-14.57-.306-7.233 2.955-15.383 6.927-21.191 3.975-5.808 8.865-10.29 14.163-12.735 2.546-1.223 5.094-1.834 7.641-1.834 4.381 0 7.744 1.731 10.189 5.196l.305.306c0 .101.102.305.204.407l8.864-24.452c.713-1.936 2.75-2.954 4.687-2.241 1.936.712 2.954 2.751 2.241 4.686l-15.486 42.485-3.464 9.578c-.51 1.222-.714 2.445-.714 3.668 0 1.221.204 2.138.611 2.648.103.102.204.306.408.407.203.204.713.306 1.426.306 2.344 0 4.585-1.324 6.419-3.26 1.834-1.935 3.261-4.178 3.974-6.215l3.566-9.678c.713-1.937 2.75-2.853 4.686-2.14 1.935.713 2.852 2.751 2.139 4.686m-35.048 11.309c3.668-3.26 7.03-8.049 9.068-13.754 2.75-7.233 1.834-12.124.202-14.468-1.018-1.425-2.444-2.138-4.278-2.138-3.158 0-7.029 1.935-10.597 5.195-3.667 3.362-7.13 8.151-9.168 13.856-2.548 7.234-1.732 12.226-.103 14.57.918 1.324 2.344 2.037 4.279 2.037 2.956 0 6.929-1.936 10.597-5.298"/>
  <path fill="#D94E4F" d="M362.471 165.819c-1.936 4.89-5.196 9.883-9.984 13.551-4.789 3.769-10.8 6.316-18.033 6.316h-.917c-.306 0-.611 0-.917-.102-3.974 2.547-8.354 4.076-12.735 4.076-8.66 0-12.736-7.131-13.041-14.468-.307-7.234 3.056-15.384 6.928-21.192 3.87-5.705 8.66-10.086 13.958-12.531 2.547-1.222 5.094-1.834 7.641-1.834 6.419 0 11.104 4.177 12.634 10.8.407 1.936-.814 3.871-2.853 4.278-1.936.409-3.871-.814-4.279-2.75-.713-3.362-2.547-5.094-5.502-5.094-3.158 0-6.928 1.935-10.493 5.196-3.668 3.362-7.03 8.15-9.067 13.856-2.75 7.03-1.835 12.021-.204 14.366 1.019 1.425 2.445 2.139 4.279 2.139 1.324 0 2.75-.305 4.278-.815-.509-.407-.814-.917-1.12-1.427-2.751-3.77-3.158-8.965-1.223-14.365 2.954-8.151 8.966-12.43 14.977-12.022 4.075.306 7.336 2.955 8.253 6.623 2.037 6.215-1.325 13.143-3.77 16.912 7.233-2.445 12.226-8.251 14.263-13.958.714-1.935 2.751-2.852 4.688-2.139 1.933.713 2.952 2.648 2.239 4.584m-24.351-3.26l-.103-.204-.101-.306c-.103-.611-.714-.917-1.631-.917-.103-.101-.203-.101-.306-.101-2.343 0-5.297 1.935-7.233 7.335-1.12 3.159-1.12 5.706.204 7.641.713.917 1.426 1.427 2.14 1.733 2.853-2.344 5.195-5.401 6.418-8.763.918-2.648 1.122-4.788.612-6.418"/>
  <path fill="#D94E4F" d="M404.851 165.004l-.713 1.63c-.103.305-.306.917-.611 1.834l-1.427 4.075c-1.223 3.973-3.464 8.252-6.521 11.513-3.057 3.259-7.132 5.603-11.716 5.603-2.344 0-3.872-.713-4.993-1.528-3.158 1.324-6.216 1.528-8.558 1.528-1.121 0-2.853-.102-4.585-.815-1.731-.713-3.362-2.037-4.075-4.381-.917-3.158.713-6.826 3.871-8.966 3.261-2.037 8.457-2.75 13.652 1.631.103.101.306.305.51.407l.407.407c1.631-2.139 1.732-4.279.611-6.723-1.223-2.344-3.158-4.789-5.501-7.336l-3.566-3.566c-1.936-1.936-3.871-3.771-5.502-5.706l-4.482 13.041c-.713 1.63-1.834 2.446-3.464 2.446-.306 0-.713-.102-1.223-.205-1.937-.712-2.955-2.648-2.241-4.584l8.049-23.229c.713-1.936 2.75-2.955 4.687-2.241 1.936.713 2.954 2.75 2.241 4.686l-.407 1.019c-.103.204 0 .51.203 1.018.103.51.51 1.121 1.02 1.834 1.527 2.038 3.77 4.28 6.215 6.725 2.954 2.853 6.011 6.011 8.456 9.373 2.342 3.362 3.871 7.03 3.565 10.8-.203 2.343-1.12 4.482-2.648 6.622 2.343-.816 4.177-2.751 5.807-4.992 1.528-2.241 2.548-4.687 3.261-6.622 1.121-3.261 1.731-5.095 2.14-6.215l.509-1.121c.103-.204.103-.306.204-.408 1.121-1.936 2.751-2.852 4.687-2.139 1.933.714 2.85 2.649 2.138 4.585m-31.176 17.117c-1.325-.917-2.445-1.121-3.566-.714-.713.306-.917.51-1.223.816.204.101.714.101 1.427.101 1.324 0 2.445-.101 3.362-.203M207.109 206.369l-6.012 16.811c-.713 1.629-1.834 2.445-3.465 2.445-.304 0-.712-.102-1.222-.204-1.936-.713-2.852-2.751-2.139-4.687l1.223-3.668h-87.276c-7.641 0-12.939 2.955-16.505 5.908-1.833 1.529-3.158 2.854-3.973 4.076-.917 1.223-1.324 1.834-1.324 1.937-.714 1.223-1.834 1.834-3.261 1.834-.917 0-2.954-.714-3.464-2.649-.509-1.936-.204-2.14 2.14-5.502 2.343-3.26 6.826-7.438 13.856-10.596 3.566-1.528 7.743-2.344 12.531-2.344h89.924l2.141-5.807c.713-1.936 2.75-2.853 4.685-2.14 1.936.714 2.854 2.65 2.141 4.586"/>
  <path fill="#D94E4F" d="M429.606 174.683c0 10.188-5.4 20.58-14.468 28.323-3.77 3.26-9.169 6.725-16.505 9.476-7.337 2.75-16.607 4.584-28.12 4.584H222.488l-2.139 6.113c-.713 1.63-1.834 2.445-3.464 2.445-.306 0-.714-.102-1.223-.205-1.935-.713-2.852-2.75-2.139-4.686l6.011-16.811c.713-1.936 2.75-2.852 4.685-2.139 1.937.711 2.854 2.648 2.141 4.584l-1.223 3.362h145.376c10.494 0 18.747-1.631 25.268-4.075 6.521-2.344 11.309-5.4 14.671-8.252 7.438-6.42 11.92-14.672 11.92-22.721 0-3.261-.814-6.623-2.75-9.17-1.937-2.547-5.095-4.279-9.578-4.279-2.139 0-4.278 2.242-5.399 5.196-.713 1.936-2.547 3.057-4.482 2.344-1.936-.714-3.057-2.65-2.344-4.585 1.936-6.113 6.929-10.189 12.226-10.189 6.113 0 11.003 2.038 14.57 6.215 3.157 3.67 4.991 8.764 4.991 14.47M155.956 82.558c-2.895 3.158-6.93 5.176-11.492 5.527 3.422 5 4.474 9.386 3.246 13.334 0 .087 0 .175-.087.175l-5.527 15.527c-1.492 4.21-.789 7.018.351 8.773.526.965 1.14 1.578 1.754 2.018l.965.701c1.667.701 2.193 2.632 1.492 4.123-.615 1.14-1.667 1.754-2.807 1.754-.527 0-.965-.088-1.404-.263-2.018-.965-4.387-3.07-5.965-6.315-1.579-3.159-2.281-7.37-.263-12.897l5.526-15.438c.439-1.755-.088-3.861-1.141-5.966-1.14-2.106-2.807-4.035-4.21-5.701l-5.439 14.912c-1.316 3.509-3.509 6.492-6.404 8.597-2.894 2.105-6.404 3.246-10.176 3.246-4.824 0-9.211-2.017-12.368-5.175-3.158-3.159-5.176-7.545-5.176-12.369 0-4.826 2.018-9.211 5.176-12.37 3.157-3.158 7.544-5.175 12.368-5.175 4.738 0 8.86 1.667 12.282 5 .614.614.965 1.404.965 2.193 0 1.666-1.404 3.158-3.071 3.158-.877.088-1.666-.264-2.281-.877-2.192-2.193-4.824-3.246-7.895-3.246-3.157 0-5.964 1.229-7.982 3.246-2.105 2.106-3.333 4.912-3.333 8.071 0 3.158 1.228 5.964 3.333 7.982 2.018 2.105 4.825 3.334 7.982 3.334 4.913 0 9.036-3.07 10.703-7.633l9.474-26.141c1.14-3.859 3.684-6.667 5.789-8.509 1.053-.965 2.018-1.666 2.807-2.106 1.667-.877 2.194-1.402 3.773-.789 1.579.614 2.368 2.456 1.754 4.035-.263.789-.789 1.405-1.579 1.754l-.789.44c-1.141.613-2.72 1.754-4.123 3.683-.79.966-1.316 2.106-1.755 3.422v.176l-1.579 4.211c1.491.613 2.983.965 4.474.965 3.07 0 5.79-1.229 7.895-3.246 2.018-2.018 3.246-4.825 3.246-7.895 0-3.07-1.228-5.791-3.246-7.895-2.105-2.019-4.825-3.247-7.895-3.247-3.07 0-5.877 1.228-7.895 3.247-2.017 2.104-3.246 4.825-3.246 7.895 0 1.666-1.403 3.07-3.07 3.07-1.755 0-3.158-1.404-3.158-3.07 0-4.826 1.93-9.124 5.088-12.281 3.158-3.158 7.456-5.088 12.281-5.088s9.123 1.93 12.281 5.088c3.158 3.157 5.088 7.455 5.088 12.281 0 4.561-1.842 8.684-4.737 11.754M158.148 109.577c-1.843-2.545-2.369-5.615-2.281-8.773.087-3.07.877-6.053 1.842-8.596 2.105-5.703 5.614-10.879 9.737-14.563 4.123-3.685 8.772-5.877 13.071-5.877 3.596 0 6.14 1.053 7.719 2.543 1.579 1.492 2.193 3.597 2.193 5.439 0 4.474-3.245 9.824-8.772 14.035-5.614 4.475-12.544 6.93-19.562 7.194-.088 4.123 1.754 6.58 4.211 7.193 1.228.264 2.28.439 3.07.439 5 0 10.088-1.667 14.299-4.298 4.122-2.632 7.369-6.229 8.859-10.44.614-1.666 2.369-2.544 4.035-1.929 1.668.613 2.545 2.368 1.93 4.035-2.018 5.526-6.053 10.176-11.228 13.51-5.175 3.333-11.491 5.35-17.895 5.35-5 .001-8.772-1.754-11.228-5.262m13.333-27.107c-3.158 2.896-6.053 7.018-7.807 11.931l-.088.088c0 .086 0 .086-.087.174 3.42-.351 6.403-1.228 8.859-2.368 2.369-1.139 4.123-2.368 5.439-3.421 4.474-3.422 6.404-7.105 6.404-9.123 0-.263 0-.702-.439-1.052-.263-.176-.614-.352-1.052-.527-.527-.088-1.229-.176-2.193-.176-2.72 0-5.966 1.668-9.036 4.474"/>
  <path fill="#D94E4F" d="M241.306 96.156v.088l-1.491 4.21c-2.018 5.35-5.526 9.211-9.737 12.281-4.299 3.07-9.298 5.264-13.947 7.368l-3.948 10.879c-.965 2.455-2.544 5-4.737 6.93-2.194 1.929-4.912 3.246-7.719 3.246-2.457 0-4.562-.878-5.878-2.896-2.017-2.807-1.579-6.755-.614-9.473 1.141-3.246 3.684-5.878 6.842-7.983 3.158-2.105 7.106-3.773 11.053-5.439l1.404-3.771c-3.421 2.367-6.754 3.508-10 3.508-7.632 0-11.053-6.141-11.317-12.456-.263-6.315 2.544-13.334 5.965-18.334 3.422-5.001 7.633-8.86 12.194-10.966 2.193-1.052 4.386-1.578 6.58-1.578 3.771 0 6.754 1.49 8.859 4.473l.175.263c.088.088.088.264.176.352l1.141-2.982c.613-1.668 2.367-2.545 4.035-1.931 1.666.614 2.455 2.368 1.842 4.035l-6.755 18.51v.087l-6.227 17.194c3.245-1.491 6.315-3.333 8.859-5.526 2.544-2.106 4.649-4.738 5.789-7.983l1.492-4.123.088-.175c.789-1.842 2.63-2.458 4.035-1.842 1.402.612 2.542 2.016 1.841 4.034m-29.65 8.07c3.158-2.806 6.14-6.93 7.894-11.843 2.194-6.228 1.493-10.526.088-12.544-.877-1.14-2.105-1.754-3.683-1.754-2.72 0-5.965 1.667-9.123 4.473-3.159 2.895-6.141 7.018-7.896 11.931-2.192 6.315-1.491 10.526-.088 12.544.79 1.14 2.018 1.755 3.685 1.755 2.544 0 5.965-1.667 9.123-4.562m-3.509 19.299c-4.474 2.105-7.896 4.387-8.948 7.457-.614 1.666-.614 3.07-.175 3.684 0 .088.263.175.702.175 2.018 0 5.263-2.457 6.578-6.052l1.843-5.264z"/>
  <path fill="#D94E4F" d="M284.378 94.313l-2.982 8.246c-.965 2.368-2.721 5.438-5.264 7.896-2.545 2.456-5.791 4.386-9.563 4.386-2.982 0-5.264-1.053-6.755-3.245-.614-.878-1.052-1.843-1.315-2.896-4.123 3.773-8.771 6.141-13.246 6.141-7.457 0-10.965-6.141-11.229-12.456-.263-6.229 2.632-13.246 5.965-18.247 3.334-4.912 7.457-8.685 12.018-10.79 2.193-1.053 4.387-1.578 6.58-1.578 3.771 0 6.666 1.49 8.771 4.472l.264.264c0 .088.088.176.176.264l1.053-2.895c.613-1.668 2.369-2.545 4.035-1.93 1.666.614 2.455 2.368 1.842 4.035l-9.648 26.58c-.439 1.053-.615 2.105-.615 3.07 0 1.053.176 1.843.527 2.368.088.088.174.264.35.352.176.176.615.263 1.229.263 1.141 0 2.982-.703 4.736-2.105 1.668-1.404 3.246-3.334 4.211-6.054l2.982-8.245c.615-1.668 2.369-2.545 4.035-1.93 1.667.613 2.456 2.367 1.843 4.034m-30.002 9.737c3.07-2.807 6.053-6.93 7.807-11.842 2.193-6.054 1.492-10.351.088-12.369-.877-1.228-2.105-1.843-3.684-1.843-2.719 0-5.965 1.667-9.035 4.474-3.158 2.895-6.053 7.017-7.808 11.931-2.368 6.052-1.579 10.351-.176 12.369.878 1.227 2.105 1.842 3.685 1.842 2.544 0 5.965-1.667 9.123-4.562"/>
  <path fill="#D94E4F" d="M277.622 110.805c-1.404-2.105-2.018-4.562-2.018-7.105 0-2.544.527-5.088 1.229-7.194l24.2-65.331c.615-1.667 2.369-2.545 4.035-1.93 1.668.614 2.457 2.369 1.842 4.036l-24.112 65.418c-.614 1.668-.965 3.334-.965 4.825 0 1.579.351 2.807.965 3.684.439.615 1.141 1.317 3.158 1.317 3.422 0 6.229-2.106 8.07-3.861 2.368-2.368 4.299-5.263 5.352-8.158l1.578-4.386c.615-1.667 2.369-2.457 4.035-1.842 1.668.614 2.545 2.368 1.93 4.035l-1.578 4.386c-1.404 3.772-3.859 7.457-6.93 10.527-3.947 3.771-8.07 5.614-12.457 5.614-4.563 0-7.018-2.192-8.334-4.035"/>
  <path fill="#D94E4F" d="M347.011 94.313c-1.668 4.211-4.475 8.508-8.598 11.667-4.123 3.246-9.299 5.439-15.527 5.439h-.789c-.264 0-.525 0-.789-.088-3.422 2.194-7.193 3.509-10.965 3.509-7.457 0-10.967-6.141-11.229-12.456-.264-6.229 2.631-13.246 5.965-18.247 3.332-4.912 7.455-8.685 12.018-10.79 2.193-1.053 4.386-1.578 6.578-1.578 5.527 0 9.563 3.595 10.879 9.298.349 1.667-.701 3.333-2.457 3.684-1.666.352-3.332-.701-3.684-2.369-.615-2.895-2.193-4.386-4.738-4.386-2.719 0-5.965 1.667-9.035 4.474-3.159 2.896-6.053 7.017-7.807 11.931-2.369 6.052-1.578 10.351-.176 12.369.877 1.227 2.105 1.841 3.686 1.841 1.138 0 2.367-.262 3.683-.702-.438-.349-.7-.789-.964-1.228-2.37-3.245-2.719-7.72-1.053-12.369 2.543-7.018 7.719-10.703 12.894-10.351 3.511.263 6.317 2.543 7.106 5.701 1.756 5.352-1.141 11.317-3.244 14.563 6.227-2.106 10.525-7.106 12.279-12.018.615-1.668 2.369-2.457 4.037-1.843 1.666.616 2.543 2.282 1.93 3.949m-20.967-2.808l-.088-.175-.088-.262c-.088-.528-.613-.791-1.402-.791-.088-.086-.176-.086-.264-.086-2.018 0-4.563 1.666-6.229 6.315-.965 2.72-.965 4.913.175 6.579.614.789 1.229 1.229 1.843 1.491 2.457-2.017 4.475-4.649 5.527-7.544.79-2.281.964-4.122.526-5.527"/>
  <path fill="#D94E4F" d="M383.501 93.611l-.613 1.404c-.088.264-.264.789-.527 1.579l-1.227 3.509c-1.053 3.421-2.982 7.105-5.615 9.912-2.631 2.808-6.141 4.825-10.089 4.825-2.017 0-3.334-.614-4.298-1.315-2.719 1.14-5.352 1.315-7.369 1.315-.965 0-2.456-.088-3.947-.702-1.49-.613-2.895-1.754-3.509-3.771-.788-2.72.614-5.877 3.332-7.72 2.81-1.755 7.282-2.368 11.757 1.403.088.088.264.264.439.352l.35.35c1.404-1.842 1.492-3.684.527-5.79-1.053-2.017-2.721-4.123-4.739-6.316l-3.069-3.07c-1.666-1.666-3.332-3.246-4.736-4.913l-3.86 11.229c-.614 1.404-1.579 2.105-2.981 2.105-.264 0-.615-.087-1.053-.175-1.668-.614-2.545-2.281-1.93-3.948l6.93-20c.613-1.668 2.366-2.545 4.034-1.93 1.666.614 2.544 2.368 1.931 4.035l-.352.878c-.088.175 0 .438.176.877.088.438.439.965.877 1.578 1.316 1.755 3.246 3.685 5.352 5.791 2.545 2.455 5.176 5.175 7.281 8.07 2.018 2.895 3.334 6.053 3.07 9.298-.176 2.019-.965 3.86-2.281 5.702 2.018-.701 3.598-2.369 5-4.299 1.316-1.929 2.193-4.035 2.807-5.701.967-2.807 1.492-4.387 1.844-5.351l.438-.965c.088-.176.088-.264.176-.352.965-1.666 2.369-2.455 4.035-1.842 1.663.615 2.454 2.282 1.839 3.948m-26.842 14.738c-1.141-.789-2.105-.965-3.07-.614-.616.262-.791.438-1.053.702.174.088.613.088 1.227.088 1.14 0 2.105-.088 2.896-.176M400.856 33.445c-.438-1.666-2.193-2.28-2.982-2.28-1.229 0-2.193.526-2.807 1.579 0 .088-.353.613-1.141 1.666-.701 1.053-1.842 2.44-3.423 3.756-3.069 2.544-7.63 5.334-14.21 5.334H315.36l1.053-3.405c.613-1.667-.176-3.545-1.844-4.158-.438-.088-.789-.237-1.053-.237-1.402 0-2.367.671-2.982 2.075l-5.176 14.458c-.613 1.667.176 3.326 1.842 3.941 1.668.613 3.422-.092 4.037-1.758l1.842-4.916h63.214c4.123 0 7.721-.79 10.791-2.106 6.053-2.72 9.912-6.361 11.93-9.168 2.018-2.894 2.281-3.114 1.842-4.781M289.043 34.814c-.437-.088-.789-.176-1.051-.176-1.404 0-2.369.948-2.984 2.352l-1.842 5.51H129.655c-9.912 0-17.896 1.333-24.211 3.701-6.317 2.369-10.965 5.228-14.211 8.035-7.809 6.667-12.457 15.553-12.457 24.325 0 4.913 1.578 9.269 4.299 12.427 3.07 3.596 6.959 5.335 12.22 5.335 1.39 0 2.705-.345 3.705-.946v-8.45c-1 1.856-2.2 3.153-3.705 3.153-3.859 0-6.416-1.493-8.084-3.685-1.666-2.193-2.287-5.089-2.287-7.895 0-6.93 3.899-14.036 10.304-19.563 2.894-2.455 7.038-4.999 12.651-7.017 5.615-2.105 12.741-3.42 21.776-3.42h151.229l-1.053 2.806c-.613 1.667.176 3.289 1.844 3.904 1.666.614 3.42-.198 4.035-1.865l5.176-14.484c.614-1.668-.175-3.434-1.843-4.047"/>
  <path fill="#FFF" d="M51.635 75.699c-.826 5.565-5.226 9.965-10.792 10.791 5.566.826 9.966 5.227 10.792 10.792.827-5.565 5.226-9.966 10.792-10.792-5.566-.826-9.965-5.226-10.792-10.791M406.635 75.699c-.826 5.565-5.226 9.965-10.791 10.791 5.565.826 9.965 5.227 10.791 10.792.826-5.565 5.227-9.966 10.792-10.792-5.566-.826-9.966-5.226-10.792-10.791"/>
  <path fill="none" d="M-276-39.5H748"/>
  <g fill="#FFF">
    <path d="M289.482 3.064c1.537 1.537 2.466 3.651 2.466 5.957s-.929 4.388-2.466 5.925c-1.538 1.537-3.619 2.466-5.926 2.466-1.281 0-2.53-.289-3.715-.897l-.801 2.21c-.48 1.281-1.281 2.37-2.338 3.139-1.058.769-2.37 1.185-3.748 1.185-1.761 0-3.362-.737-4.516-1.89s-1.89-2.754-1.89-4.516c0-1.793.736-3.395 1.89-4.548s2.755-1.89 4.516-1.89c1.698 0 3.3.641 4.484 1.826.48.48.513 1.153.032 1.633-.225.224-.513.353-.801.353-.32 0-.608-.128-.833-.353-.801-.769-1.762-1.153-2.883-1.153-1.152 0-2.146.448-2.882 1.185-.769.769-1.218 1.793-1.218 2.946 0 1.153.449 2.146 1.218 2.883.736.769 1.729 1.217 2.882 1.217 1.794 0 3.363-1.089 3.908-2.754 0-.032 0-.032.032-.032l3.427-9.544c.48-1.441 1.345-2.466 2.146-3.139.385-.352.737-.608 1.025-.769.608-.32.769-.512 1.377-.288.608.256.896.929.673 1.505-.097.288-.32.512-.608.641l-.289.16c-.416.224-.992.641-1.505 1.345-.288.352-.48.769-.641 1.249v.032l-1.89 5.188c.896.513 1.89.769 2.946.769 1.666 0 3.235-.705 4.324-1.793 1.089-1.089 1.762-2.626 1.762-4.292s-.673-3.235-1.762-4.324-2.658-1.762-4.324-1.762c-1.665 0-3.202.673-4.292 1.762-1.089 1.089-1.793 2.658-1.793 4.324 0 .641-.513 1.153-1.153 1.153s-1.153-.512-1.153-1.153c0-2.306.93-4.42 2.467-5.957 1.537-1.505 3.619-2.435 5.925-2.435 2.308.001 4.389.931 5.927 2.436z"/>
    <path d="M296.309 21.928c-.416-.608-.576-1.313-.576-2.05-.032-.736.128-1.441.353-2.05l2.081-5.765c.097-.16.097-.288.032-.352-.16-.353-.736-.608-.961-.705l-.063-.032-1.281-.512c-.064.16-.128.352-.192.544l-.192.576-1.665 4.612c-.225.608-.865.897-1.474.672-.608-.224-.929-.865-.704-1.473l1.665-4.58.48-1.409c-1.313-.897-1.794-1.89-1.89-2.787-.096-.865.32-1.954 1.377-2.466.545-.256 1.089-.289 1.634-.064.256.128.641.32.929.705.288.416.576 1.025.608 1.921.032.48.032.929-.063 1.473l1.633.673c.128.032.577.224 1.025.512.448.289.929.737 1.217 1.345.32.641.353 1.345.064 2.146l-2.082 5.765c-.288.769-.32 1.602-.064 1.986.032.032.097.096.16.128.064.032.192.064.417.064.736 0 1.409-.416 2.018-1.025.608-.608 1.057-1.313 1.281-1.954l1.089-3.042c.224-.608.896-.897 1.505-.673s.896.865.673 1.474l-1.121 3.042c-.288.865-.993 1.986-1.89 2.883-.929.896-2.146 1.601-3.555 1.601-1.027.002-1.923-.414-2.468-1.183z"/>
    <path d="M303.293 21.127c-.673-.929-.864-2.05-.833-3.203.032-1.121.32-2.21.673-3.139.769-2.082 2.05-3.972 3.556-5.317 1.505-1.345 3.202-2.146 4.771-2.146 1.313 0 2.242.385 2.819.929.576.544.8 1.313.8 1.985 0 1.634-1.185 3.587-3.202 5.125-2.05 1.633-4.58 2.53-7.143 2.626-.032 1.505.641 2.402 1.537 2.626.448.096.833.16 1.121.16 1.826 0 3.684-.608 5.221-1.569 1.506-.961 2.69-2.274 3.235-3.812.224-.608.864-.929 1.473-.705s.929.865.705 1.473c-.737 2.018-2.21 3.715-4.1 4.933-1.89 1.217-4.196 1.954-6.534 1.954-1.825.002-3.203-.638-4.099-1.92zm4.868-9.896c-1.152 1.057-2.21 2.562-2.851 4.356l-.031.032c0 .032 0 .032-.032.064 1.249-.128 2.338-.448 3.234-.865.865-.416 1.506-.865 1.986-1.249 1.633-1.249 2.338-2.594 2.338-3.331 0-.096 0-.256-.16-.384-.097-.064-.225-.128-.385-.192-.191-.032-.448-.064-.801-.064-.991 0-2.177.608-3.298 1.633z"/>
    <path d="M331.705 15.298l-.225.513-.192.576-.448 1.281c-.384 1.249-1.089 2.594-2.05 3.619s-2.242 1.762-3.683 1.762c-.737 0-1.218-.224-1.57-.48-.992.417-1.953.48-2.689.48-.353 0-.897-.032-1.441-.256-.545-.224-1.058-.641-1.281-1.377-.288-.993.224-2.146 1.217-2.819 1.025-.64 2.658-.865 4.292.513.032.032.096.096.16.128l.128.128c.513-.673.545-1.345.192-2.114-.385-.737-.993-1.505-1.729-2.306l-1.121-1.121c-.608-.608-1.217-1.185-1.729-1.793l-1.409 4.1c-.225.512-.577.769-1.089.769-.097 0-.225-.032-.385-.064-.608-.224-.929-.833-.704-1.441l2.53-7.302c.224-.609.864-.929 1.473-.705s.929.865.705 1.473l-.128.32c-.032.064 0 .16.063.32.032.16.16.352.32.577.48.64 1.186 1.345 1.954 2.114.929.896 1.89 1.89 2.658 2.946.736 1.057 1.217 2.21 1.121 3.395-.064.737-.353 1.409-.833 2.082.736-.256 1.313-.865 1.825-1.569.48-.705.801-1.474 1.025-2.082.353-1.025.545-1.601.673-1.954l.16-.353c.031-.064.031-.096.063-.128.353-.608.865-.897 1.474-.672.609.224.897.832.673 1.44zm-9.801 5.381c-.417-.288-.769-.352-1.121-.224-.225.096-.288.16-.385.256.064.032.225.032.449.032.417 0 .769-.032 1.057-.064z"/>
    <path d="M329.689 21.127c-.673-.929-.864-2.05-.833-3.203.032-1.121.32-2.21.673-3.139.769-2.082 2.05-3.972 3.556-5.317 1.505-1.345 3.202-2.146 4.771-2.146 1.313 0 2.242.385 2.819.929.576.544.8 1.313.8 1.985 0 1.634-1.185 3.587-3.202 5.125-2.05 1.633-4.58 2.53-7.143 2.626-.032 1.505.641 2.402 1.537 2.626.448.096.833.16 1.121.16 1.826 0 3.684-.608 5.221-1.569 1.506-.961 2.69-2.274 3.235-3.812.224-.608.864-.929 1.473-.705s.929.865.705 1.473c-.737 2.018-2.21 3.715-4.1 4.933-1.89 1.217-4.196 1.954-6.534 1.954-1.824.002-3.202-.638-4.099-1.92zm4.869-9.896c-1.152 1.057-2.21 2.562-2.851 4.356l-.031.032c0 .032 0 .032-.032.064 1.249-.128 2.338-.448 3.234-.865.865-.416 1.506-.865 1.986-1.249 1.633-1.249 2.338-2.594 2.338-3.331 0-.096 0-.256-.16-.384-.097-.064-.225-.128-.385-.192-.191-.032-.448-.064-.801-.064-.992 0-2.177.608-3.298 1.633z"/>
    <path d="M357.909 15.555l-1.089 3.011c-.353.865-.992 1.986-1.922 2.882-.929.897-2.113 1.602-3.49 1.602-1.058 0-1.922-.448-2.467-1.185-.416-.608-.576-1.313-.576-2.05s.128-1.441.353-2.05l2.21-5.989c.224-.737.224-1.281-.064-1.666-.288-.417-.801-.512-1.217-.512-.769 0-1.602.352-2.338.865-.737.544-1.313 1.281-1.602 2.082l-3.556 9.769c-.16.48-.576.737-1.057.737-.096 0-.256-.032-.416-.064-.609-.224-.897-.865-.673-1.473l3.555-9.737c.032-.096.064-.192.097-.288l.096-.224c.032-.032.032-.096.032-.128s0-.064.032-.096c.096-.288.16-.576.16-.833 0-.224-.032-.417-.097-.513 0-.064-.096-.096-.256-.096-.641 0-1.153-.513-1.153-1.121 0-.641.513-1.153 1.153-1.153.929 0 1.634.353 2.146 1.057l.097.128c0 .064.031.128.063.16 1.121-.865 2.435-1.345 3.716-1.345 1.377 0 2.434.48 3.106 1.474.736 1.025.801 2.37.32 3.747l-2.21 6.021c-.256.769-.288 1.602-.032 1.986.032.032.064.096.128.128s.225.064.449.064c.672 0 1.409-.416 1.985-1.025.576-.608 1.024-1.313 1.281-1.954l1.089-3.011c.224-.608.864-.896 1.474-.672.61.223.898.863.673 1.472z"/>
    <path d="M367.297 15.522c-.129.385-.417 1.089-.833 1.89-.416.8-.993 1.729-1.666 2.594-1.665 2.018-3.555 3.042-5.7 3.042-2.146 0-3.203-.897-3.716-1.633-.864-1.185-.929-2.851-.288-4.644l2.946-8.104h-1.249c-.641 0-1.152-.512-1.152-1.121 0-.641.512-1.153 1.152-1.153h2.082l1.825-4.996c.225-.609.865-.929 1.474-.705.608.224.896.865.673 1.473l-1.506 4.228h3.331c.608 0 1.153.513 1.153 1.153 0 .608-.545 1.121-1.153 1.121h-4.163l-3.235 8.904c-.192.513-.288.993-.288 1.441 0 .897.288 1.729 2.114 1.729 1.825 0 3.234-1.249 4.26-2.626.992-1.377 1.601-2.883 1.761-3.395.225-.609.865-.897 1.474-.673s.928.867.704 1.475z"/>
    <path d="M382.863 15.555l-1.089 3.011c-.352.865-.992 1.986-1.921 2.882-.93.897-2.114 1.602-3.491 1.602-1.089 0-1.922-.384-2.467-1.185-.224-.32-.384-.672-.48-1.057-1.505 1.377-3.202 2.242-4.836 2.242-2.723 0-4.004-2.242-4.1-4.548-.096-2.274.961-4.836 2.178-6.662 1.218-1.793 2.723-3.171 4.388-3.939.801-.384 1.602-.577 2.402-.577 1.377 0 2.435.545 3.203 1.634l.096.096c0 .032.032.064.064.096l.384-1.057c.225-.609.865-.929 1.474-.705s.896.865.673 1.473l-3.523 9.705c-.16.384-.224.769-.224 1.121 0 .384.063.672.191.865.032.032.064.096.129.128.063.064.224.096.448.096.416 0 1.089-.256 1.729-.769.608-.513 1.185-1.217 1.537-2.21l1.089-3.011c.225-.608.865-.929 1.474-.705s.897.865.672 1.474zM371.91 19.11c1.121-1.025 2.21-2.53 2.851-4.324.801-2.21.544-3.779.032-4.516-.32-.448-.769-.672-1.346-.672-.993 0-2.178.608-3.299 1.633-1.153 1.057-2.21 2.562-2.851 4.356-.864 2.21-.576 3.779-.063 4.516.32.449.769.673 1.345.673.929-.001 2.178-.609 3.331-1.666zM385.654 19.334l-.32.929c-.225.48-.608.769-1.089.769-.129 0-.257-.032-.417-.064-.608-.224-.896-.896-.672-1.505l.352-.929c.225-.608.865-.896 1.474-.672s.896.864.672 1.472zm2.082-5.957l-.353.96c-.16.48-.577.737-1.058.737h-.191c-.097 0-.16-.032-.225-.064-.608-.224-.896-.865-.673-1.473l.32-.929c.225-.608.897-.929 1.506-.705.61.225.898.865.674 1.474z"/>
  </g>
  <path fill-rule="evenodd" clip-rule="evenodd" fill="#D94E4F" d="M81.859 237.323c0 1.553.002 3.021 0 4.487-.005 3.358-.019 6.718-.009 10.076 0 .437-.128.705-.515.93-.955.556-1.346 1.604-1.052 2.666.275.99 1.219 1.728 2.244 1.753 1.067.026 2.057-.705 2.36-1.743.304-1.033-.065-2.087-.984-2.645-.432-.262-.579-.59-.576-1.075.026-4.565.039-9.132.059-13.698 0-.225.025-.448.042-.73.511 0 1.009-.07 1.471.03.235.052.479.38.59.638 1.208 2.789 2.388 5.59 3.579 8.386 1.123 2.635 2.235 5.274 3.386 7.897.373.853.36 1.615-.07 2.45-1.378 2.671-2.724 5.358-4.048 8.056-.397.808-.967 1.149-1.865 1.135-2.607-.039-5.214-.055-7.82-.028-.928.01-1.48-.349-1.881-1.183-1.329-2.772-2.703-5.522-4.082-8.271-.334-.663-.35-1.292-.061-1.962 2.402-5.563 4.801-11.129 7.19-16.698.156-.361.375-.505.765-.476.397.027.798.005 1.277.005"/>
  <path fill-rule="evenodd" clip-rule="evenodd" fill="#FFF" d="M90.211 230.129c.854.628 1.757 1.2 2.554 1.894 3.142 2.735 4.903 6.182 5.124 10.363.035.655.235.883.904.858 1.301-.05 1.496.172 1.499 1.467.004 1.37.005 2.741-.009 4.112-.008.867-.317 1.166-1.178 1.172-1.441.007-2.881.008-4.322.002-.926-.004-1.274-.344-1.277-1.245-.006-1.463-.009-2.929.005-4.392.007-.754.365-1.103 1.102-1.127 1.447-.049 1.486-.056 1.263-1.547-.801-5.377-3.842-8.908-8.93-10.721-.254-.09-.524-.133-.845-.211-.028.282-.039.484-.068.688-.076.528-.371.858-.916.862-1.65.013-3.299.011-4.949-.006-.546-.006-.84-.33-.891-.873-.019-.202-.041-.403-.067-.669-1.769.383-3.303 1.117-4.683 2.159-3.095 2.338-4.801 5.469-5.199 9.317-.101.986-.079.994.943.998 1.114.006 1.393.283 1.395 1.399.003 1.37.009 2.741-.001 4.112-.005.91-.35 1.25-1.268 1.254-1.464.006-2.928.006-4.391-.004-.782-.006-1.11-.314-1.119-1.088-.016-1.533-.018-3.067-.004-4.6.008-.775.333-1.063 1.128-1.076 1.357-.022 1.29-.029 1.427-1.391.462-4.563 2.634-8.145 6.357-10.798.431-.306.888-.573 1.326-1.017-.227-.021-.456-.062-.683-.062-5.971-.001-11.943.009-17.914-.008-.548-.002-.809.167-1.019.685-.763 1.871-2.775 2.934-4.689 2.539-2.102-.434-3.562-2.15-3.579-4.208-.016-1.974 1.476-3.849 3.382-4.247 2.036-.43 4.071.568 4.863 2.479.247.594.562.716 1.141.715 7.295-.019 14.59-.021 21.886 0 .634.001.786-.206.771-.802-.033-1.366.207-1.581 1.55-1.578 1.325.002 2.65-.001 3.973.004.889.004 1.222.332 1.232 1.206.015 1.28-.143 1.155 1.159 1.155 7.133.006 14.266-.004 21.399.011.551.001.849-.122 1.079-.688.775-1.908 2.751-2.894 4.85-2.511 1.858.34 3.327 2.128 3.41 4.151.078 1.871-1.36 3.779-3.2 4.244-2.024.515-4.116-.371-4.951-2.252-.342-.772-.778-.916-1.522-.912-5.694.025-11.385.014-17.077.014h-.946c-.008.061-.016.118-.025.173"/>
  <path fill="none" d="M-276-39.5H748"/>
  <g fill="#FFF">
    <path d="M94.959 11.118h4.355v3.067h-4.355v8.864h-3.374V1.579h8.925v3.067h-5.552v6.472zM105.356 1.579v16.563c0 .777.158 1.319.476 1.626.317.307.741.46 1.273.46.531 0 .956-.153 1.273-.46.316-.307.475-.849.475-1.626V1.579h3.19v16.348c0 1.738-.424 3.072-1.273 4.002-.849.931-2.101 1.396-3.757 1.396s-2.909-.465-3.757-1.396c-.849-.93-1.272-2.264-1.272-4.002V1.579h3.372zM117.717 10.627h4.632v3.067h-4.632v6.288h5.828v3.067h-9.201V1.579h9.201v3.067h-5.828v5.981zM132.685 23.049c-.041-.143-.082-.276-.123-.399-.041-.123-.077-.276-.107-.46s-.051-.419-.061-.706c-.011-.286-.016-.644-.016-1.073v-3.374c0-1.001-.174-1.707-.521-2.116-.348-.409-.91-.614-1.687-.614h-1.166v8.742h-3.374V1.579h5.091c1.758 0 3.031.409 3.819 1.227.787.818 1.181 2.055 1.181 3.711v1.687c0 2.208-.736 3.661-2.208 4.355.859.348 1.447.916 1.764 1.702.317.788.476 1.744.476 2.868v3.313c0 .532.02.997.062 1.396.041.398.143.803.307 1.211h-3.437zm-3.681-18.403v6.595h1.319c.634 0 1.13-.164 1.488-.491.357-.327.537-.92.537-1.779V6.854c0-.777-.138-1.339-.414-1.687-.276-.347-.71-.521-1.303-.521h-1.627zM148.879 23.049h-3.404l-.583-3.896h-4.141l-.583 3.896h-3.098l3.435-21.47h4.938l3.436 21.47zm-7.698-6.809h3.251l-1.625-10.858-1.626 10.858zM155.198 1.579h5.337c1.697 0 2.959.45 3.788 1.35s1.242 2.219 1.242 3.957v10.858c0 1.738-.414 3.057-1.242 3.957-.828.9-2.091 1.35-3.788 1.35h-5.337V1.579zm3.374 3.067v15.336h1.902c.531 0 .951-.153 1.257-.46.307-.307.46-.848.46-1.625V6.732c0-.777-.153-1.319-.46-1.625-.307-.307-.726-.46-1.257-.46h-1.902zM171.085 10.627h4.632v3.067h-4.632v6.288h5.828v3.067h-9.201V1.579h9.201v3.067h-5.828v5.981zM183.753 1.579h3.374v18.403h5.552v3.067h-8.925V1.579zM205.07 23.049h-3.404l-.583-3.896h-4.141l-.583 3.896h-3.098l3.435-21.47h4.938l3.436 21.47zm-7.699-6.809h3.251l-1.625-10.858-1.626 10.858zM221.172 15.044v2.853c0 1.738-.425 3.072-1.273 4.002-.849.931-2.101 1.396-3.757 1.396s-2.909-.465-3.757-1.396c-.849-.93-1.273-2.264-1.273-4.002V6.732c0-1.738.424-3.072 1.273-4.003.848-.93 2.101-1.396 3.757-1.396s2.909.465 3.757 1.396c.848.931 1.273 2.265 1.273 4.003v2.085h-3.19v-2.3c0-.777-.159-1.324-.476-1.641-.317-.316-.741-.475-1.272-.475-.532 0-.957.159-1.273.475-.317.317-.476.864-.476 1.641v11.594c0 .777.158 1.319.476 1.625.316.307.741.46 1.273.46.531 0 .956-.153 1.272-.46s.476-.848.476-1.625v-3.067h3.19zM234.146 23.049h-3.404l-.583-3.896h-4.141l-.583 3.896h-3.098l3.435-21.47h4.938l3.436 21.47zm-7.699-6.809h3.251l-1.625-10.858-1.626 10.858zM234.79 19.982c.184.021.378.031.583.031h.583c.532 0 .987-.133 1.365-.398s.567-.818.567-1.656V1.579h3.374v16.133c0 1.084-.133 1.974-.398 2.668-.266.695-.624 1.242-1.073 1.641-.45.398-.967.68-1.55.843-.582.164-1.191.246-1.824.246h-.829c-.245 0-.511-.021-.797-.062v-3.066zM254.481 23.049h-3.405l-.582-3.896h-4.142l-.582 3.896h-3.099l3.436-21.47h4.938l3.436 21.47zm-7.699-6.809h3.251l-1.625-10.858-1.626 10.858z"/>
  </g>
  <g fill="#FFF">
    <path d="M163.293 249.18v.064l-.544 1.505c-.384 1.025-1.153 2.338-2.178 3.427-1.057 1.089-2.37 1.922-3.875 1.922-1.377 0-2.402-.48-3.011-1.345-1.249.865-2.499 1.345-3.748 1.345-1.377 0-2.466-.544-3.235-1.633-.032-.096-.096-.16-.128-.225l-2.787 7.687c-.224.608-.865.929-1.473.705s-.929-.865-.705-1.473l6.246-17.135c.096-.288.16-.577.16-.833s-.032-.448-.096-.544c-.032 0-.032 0-.064-.032s-.128-.032-.224-.032c-.609 0-1.121-.512-1.121-1.153s.512-1.153 1.121-1.153c.929 0 1.665.353 2.178 1.057.16.256.32.577.417.993 1.505-1.281 3.106-2.05 4.612-2.05 2.787 0 4.036 2.274 4.132 4.58.096 2.306-.897 4.676-1.858 6.214-.48.8-1.025 1.505-1.633 2.114.032.16.096.288.256.416s.48.192.961.192c.608 0 1.345-.384 2.082-1.057.737-.672 1.377-1.633 1.793-2.786.192-.513.32-.897.417-1.121.064-.224.096-.353.128-.384h.032v-.064c.288-.673.961-.897 1.473-.673.672.254.897.927.672 1.472zm-10.024 2.946c1.153-1.025 2.242-2.53 2.883-4.324.8-2.274.544-3.843.032-4.58-.32-.417-.769-.641-1.345-.641-.993 0-2.178.608-3.331 1.634-1.153 1.057-2.21 2.562-2.85 4.355h-.032c-.801 2.274-.544 3.812-.032 4.548.32.448.769.672 1.345.672.928.002 2.177-.607 3.33-1.664z"/>
    <path d="M178.126 248.507c-.609 1.538-1.634 3.107-3.139 4.26-1.505 1.185-3.395 1.986-5.669 1.986h-.288c-.096 0-.192 0-.288-.032-1.249.801-2.626 1.281-4.003 1.281-2.723 0-4.004-2.242-4.1-4.548-.096-2.274.96-4.836 2.178-6.662 1.217-1.793 2.722-3.171 4.388-3.939.801-.384 1.602-.577 2.402-.577 2.018 0 3.491 1.313 3.971 3.395.128.609-.256 1.217-.896 1.345-.609.128-1.217-.256-1.345-.865-.224-1.057-.801-1.601-1.729-1.601-.993 0-2.178.608-3.299 1.633-1.153 1.057-2.21 2.562-2.851 4.356-.865 2.21-.577 3.779-.064 4.516.32.449.769.673 1.345.673.416 0 .865-.096 1.345-.256-.16-.128-.256-.288-.352-.448-.865-1.185-.993-2.818-.384-4.516.929-2.562 2.818-3.907 4.708-3.779 1.281.096 2.306.929 2.594 2.082.641 1.954-.417 4.131-1.185 5.316 2.274-.769 3.843-2.594 4.484-4.388.224-.608.865-.897 1.474-.673.607.224.927.832.703 1.441zm-7.655-1.025l-.032-.064-.032-.096c-.032-.192-.225-.288-.513-.288-.032-.032-.064-.032-.096-.032-.736 0-1.666.608-2.274 2.306-.352.993-.352 1.793.064 2.402.225.289.449.449.673.545.896-.737 1.633-1.698 2.018-2.755.288-.833.352-1.505.192-2.018z"/>
    <path d="M180.371 254.88c-.416-.608-.576-1.313-.576-2.05-.032-.736.128-1.441.352-2.05l2.082-5.765c.096-.16.096-.288.032-.352-.16-.353-.736-.608-.96-.705l-.064-.032-1.281-.512c-.064.16-.128.352-.192.544l-.192.576-1.665 4.612c-.225.608-.865.897-1.474.672-.608-.224-.929-.865-.705-1.473l1.666-4.58.48-1.409c-1.313-.897-1.793-1.89-1.89-2.787-.096-.865.32-1.954 1.377-2.466.544-.256 1.089-.289 1.633-.064.256.128.641.32.929.705.288.416.577 1.025.608 1.921.032.48.032.929-.064 1.473l1.633.673c.128.032.577.224 1.025.512.449.289.929.737 1.217 1.345.32.641.352 1.345.064 2.146l-2.082 5.765c-.289.769-.32 1.602-.064 1.986.032.032.096.096.16.128s.192.064.417.064c.737 0 1.409-.416 2.018-1.025.609-.608 1.057-1.313 1.281-1.954l1.089-3.042c.225-.608.897-.897 1.505-.673.609.224.897.865.673 1.474l-1.121 3.042c-.288.865-.993 1.986-1.89 2.883-.929.896-2.146 1.601-3.555 1.601-1.025.002-1.922-.414-2.466-1.183zM208.047 248.571l-.801 2.178c-.736 2.018-2.05 3.427-3.683 4.548s-3.491 1.922-5.285 2.69l-1.409 3.875c-.352.896-.961 1.825-1.729 2.53-.801.705-1.793 1.217-2.818 1.217-1.826 0-2.69-1.505-2.659-2.818.032-1.281.385-2.37 1.25-3.299s2.018-1.666 3.427-2.306c.673-.32 1.377-.641 2.114-.961l5.541-15.181c.224-.609.865-.897 1.473-.673.609.224.929.865.705 1.474l-4.804 13.164c1.281-.609 2.499-1.25 3.491-2.05.993-.801 1.762-1.762 2.242-3.011l.8-2.178c.225-.608.865-.896 1.474-.672s.895.864.671 1.473zm-12.651 10.633c-1.634.769-2.883 1.602-3.299 2.659-.096.288-.16.576-.16.833s.032.448.128.544c0 .032 0 .032.032.032.032.032.096.032.224.032.384 0 .865-.224 1.313-.608s.833-.961 1.057-1.602l.705-1.89zm8.071-22.355l.417-1.153c.224-.609.865-.897 1.473-.673.609.224.897.865.673 1.473l-.417 1.121c-.16.48-.577.769-1.057.769-.128 0-.256-.032-.417-.064-.607-.224-.896-.865-.672-1.473z"/>
    <path d="M222.718 248.507c-.609 1.538-1.634 3.107-3.139 4.26-1.505 1.185-3.395 1.986-5.669 1.986h-.288c-.096 0-.192 0-.288-.032-1.249.801-2.626 1.281-4.003 1.281-2.723 0-4.004-2.242-4.1-4.548-.096-2.274.96-4.836 2.178-6.662 1.217-1.793 2.722-3.171 4.388-3.939.801-.384 1.602-.577 2.402-.577 2.018 0 3.491 1.313 3.971 3.395.128.609-.256 1.217-.896 1.345-.608.128-1.217-.256-1.345-.865-.224-1.057-.801-1.601-1.729-1.601-.993 0-2.178.608-3.299 1.633-1.153 1.057-2.21 2.562-2.851 4.356-.865 2.21-.577 3.779-.064 4.516.32.449.769.673 1.345.673.416 0 .865-.096 1.345-.256-.16-.128-.256-.288-.352-.448-.865-1.185-.993-2.818-.384-4.516.929-2.562 2.818-3.907 4.708-3.779 1.281.096 2.306.929 2.594 2.082.641 1.954-.417 4.131-1.185 5.316 2.274-.769 3.843-2.594 4.484-4.388.225-.608.865-.897 1.474-.673.607.224.927.832.703 1.441zm-7.655-1.025l-.032-.064-.031-.096c-.032-.192-.225-.288-.513-.288-.032-.032-.064-.032-.096-.032-.736 0-1.666.608-2.274 2.306-.352.993-.352 1.793.064 2.402.225.289.449.449.673.545.896-.737 1.633-1.698 2.018-2.755.288-.833.352-1.505.191-2.018z"/>
    <path d="M220.671 254.08c-.672-.929-.865-2.05-.833-3.203.032-1.121.32-2.21.672-3.139.769-2.082 2.05-3.972 3.555-5.317s3.203-2.146 4.772-2.146c1.313 0 2.242.385 2.818.929s.801 1.313.801 1.985c0 1.634-1.185 3.587-3.203 5.125-2.05 1.633-4.58 2.53-7.142 2.626-.032 1.505.641 2.402 1.538 2.626.448.096.833.16 1.121.16 1.826 0 3.684-.608 5.221-1.569 1.505-.961 2.69-2.274 3.235-3.812.224-.608.865-.929 1.473-.705.609.224.929.865.705 1.473-.736 2.018-2.209 3.715-4.1 4.933-1.89 1.217-4.195 1.954-6.534 1.954-1.824.001-3.202-.639-4.099-1.92zm4.869-9.897c-1.153 1.057-2.21 2.562-2.851 4.356l-.032.032c0 .032 0 .032-.032.064 1.249-.128 2.338-.448 3.235-.865.865-.416 1.505-.865 1.985-1.249 1.634-1.249 2.338-2.594 2.338-3.331 0-.096 0-.256-.16-.384-.096-.064-.224-.128-.384-.192-.192-.032-.449-.064-.801-.064-.992 0-2.177.608-3.298 1.633z"/>
    <path d="M233.133 254.528c-.513-.769-.737-1.666-.737-2.594 0-.929.192-1.858.448-2.626l5.477-14.957c.225-.609.865-.929 1.474-.705.608.224.896.865.673 1.473l-5.445 14.989c-.224.608-.353 1.217-.353 1.761 0 .577.128 1.025.353 1.345.16.224.416.48 1.153.48 1.249 0 2.274-.769 2.946-1.409.865-.865 1.569-1.921 1.954-2.979l.576-1.602c.225-.608.865-.896 1.474-.672s.929.865.704 1.473l-.576 1.602c-.513 1.377-1.409 2.722-2.53 3.843-1.441 1.377-2.946 2.05-4.548 2.05-1.666.001-2.562-.799-3.043-1.472z"/>
    <path d="M241.91 254.08c-.384-.512-.736-1.281-.832-2.338-.129-1.025.031-2.338.641-4.003.769-2.082 2.018-3.972 3.555-5.317 1.506-1.345 3.203-2.146 4.772-2.146 1.185 0 2.082.353 2.69 1.089.384.48.864 1.281.641 2.53-.097.64-.673 1.089-1.281.993-.641-.096-1.089-.672-.993-1.313.032-.096.032-.225.032-.385 0-.128-.032-.224-.128-.32-.16-.225-.48-.32-.961-.32-.993 0-2.21.608-3.331 1.633-1.153 1.057-2.21 2.562-2.851 4.356-.673 1.826-.705 3.331-.096 4.228.608.865 1.569.961 2.113.961 1.922 0 3.939-.705 5.637-1.793 1.666-1.089 3.011-2.563 3.619-4.196.225-.608.865-.929 1.474-.705s.896.865.673 1.473c-.769 2.05-2.402 3.939-4.452 5.285-2.082 1.345-4.548 2.21-6.95 2.21-1.665-.001-3.107-.673-3.972-1.922z"/>
    <path d="M272.853 248.507l-1.089 3.011c-.352.865-.992 1.986-1.921 2.882-.93.897-2.114 1.602-3.491 1.602-1.089 0-1.922-.384-2.467-1.185-.224-.32-.384-.672-.48-1.057-1.505 1.377-3.202 2.242-4.836 2.242-2.723 0-4.004-2.242-4.1-4.548-.096-2.274.961-4.836 2.178-6.662 1.218-1.793 2.723-3.171 4.388-3.939.801-.384 1.602-.577 2.402-.577 1.377 0 2.435.545 3.203 1.634l.096.096c0 .032.032.064.064.096l.384-1.057c.225-.609.865-.929 1.474-.705s.896.865.673 1.473l-3.523 9.705c-.16.384-.224.769-.224 1.121 0 .384.063.672.191.865.032.032.064.096.129.128.063.064.224.096.448.096.416 0 1.089-.256 1.729-.769.608-.513 1.185-1.217 1.537-2.21l1.089-3.011c.225-.608.865-.929 1.474-.705s.896.865.672 1.474zm-10.954 3.555c1.121-1.025 2.21-2.53 2.851-4.324.801-2.21.544-3.779.032-4.516-.32-.448-.769-.672-1.346-.672-.993 0-2.178.608-3.299 1.633-1.153 1.057-2.21 2.562-2.851 4.356-.864 2.21-.576 3.779-.063 4.516.32.449.769.673 1.345.673.929 0 2.178-.609 3.331-1.666z"/>
    <path d="M275.13 254.88c-.416-.608-.576-1.313-.576-2.05-.032-.736.128-1.441.353-2.05l2.081-5.765c.097-.16.097-.288.032-.352-.16-.353-.736-.608-.961-.705l-.063-.032-1.281-.512c-.064.16-.128.352-.192.544l-.192.576-1.665 4.612c-.225.608-.865.897-1.474.672-.608-.224-.929-.865-.704-1.473l1.665-4.58.48-1.409c-1.313-.897-1.794-1.89-1.89-2.787-.096-.865.32-1.954 1.377-2.466.545-.256 1.089-.289 1.634-.064.256.128.641.32.929.705.288.416.576 1.025.608 1.921.032.48.032.929-.063 1.473l1.633.673c.128.032.577.224 1.025.512.448.289.929.737 1.217 1.345.32.641.353 1.345.064 2.146l-2.082 5.765c-.288.769-.32 1.602-.064 1.986.032.032.097.096.16.128.064.032.192.064.417.064.736 0 1.409-.416 2.018-1.025.608-.608 1.057-1.313 1.281-1.954l1.089-3.042c.224-.608.896-.897 1.505-.673s.896.865.673 1.474l-1.121 3.042c-.288.865-.993 1.986-1.89 2.883-.929.896-2.146 1.601-3.555 1.601-1.027.002-1.923-.414-2.468-1.183z"/>
    <path d="M299.729 248.507l-1.089 3.011c-.352.865-.992 1.986-1.921 2.882-.93.897-2.114 1.602-3.491 1.602-1.089 0-1.922-.384-2.467-1.185-.224-.32-.384-.672-.48-1.057-1.505 1.377-3.202 2.242-4.836 2.242-2.723 0-4.004-2.242-4.1-4.548-.096-2.274.961-4.836 2.178-6.662 1.218-1.793 2.723-3.171 4.388-3.939.801-.384 1.602-.577 2.402-.577 1.377 0 2.435.545 3.203 1.634l.096.096c0 .032.032.064.064.096l.384-1.057c.225-.609.865-.929 1.474-.705s.896.865.673 1.473l-3.523 9.705c-.16.384-.224.769-.224 1.121 0 .384.063.672.191.865.032.032.064.096.129.128.063.064.224.096.448.096.416 0 1.089-.256 1.729-.769.608-.513 1.185-1.217 1.537-2.21l1.089-3.011c.225-.608.865-.929 1.474-.705s.897.865.672 1.474zm-10.953 3.555c1.121-1.025 2.21-2.53 2.851-4.324.801-2.21.544-3.779.032-4.516-.32-.448-.769-.672-1.346-.672-.993 0-2.178.608-3.299 1.633-1.153 1.057-2.21 2.562-2.851 4.356-.864 2.21-.576 3.779-.063 4.516.32.449.769.673 1.345.673.929 0 2.178-.609 3.331-1.666z"/>
    <path d="M297.844 254.08c-.384-.512-.736-1.281-.832-2.338-.129-1.025.031-2.338.641-4.003.769-2.082 2.018-3.972 3.555-5.317 1.506-1.345 3.203-2.146 4.772-2.146 1.185 0 2.082.353 2.69 1.089.384.48.864 1.281.641 2.53-.097.64-.673 1.089-1.281.993-.641-.096-1.089-.672-.993-1.313.032-.096.032-.225.032-.385 0-.128-.032-.224-.128-.32-.16-.225-.48-.32-.961-.32-.993 0-2.21.608-3.331 1.633-1.153 1.057-2.21 2.562-2.851 4.356-.673 1.826-.705 3.331-.096 4.228.608.865 1.569.961 2.113.961 1.922 0 3.939-.705 5.637-1.793 1.666-1.089 3.011-2.563 3.619-4.196.225-.608.865-.929 1.474-.705s.896.865.673 1.473c-.769 2.05-2.402 3.939-4.452 5.285-2.082 1.345-4.548 2.21-6.95 2.21-1.666-.001-3.107-.673-3.972-1.922z"/>
    <path d="M328.786 248.507l-1.089 3.011c-.352.865-.992 1.986-1.921 2.882-.93.897-2.114 1.602-3.491 1.602-1.089 0-1.922-.384-2.467-1.185-.224-.32-.384-.672-.48-1.057-1.505 1.377-3.202 2.242-4.836 2.242-2.723 0-4.004-2.242-4.1-4.548-.096-2.274.961-4.836 2.178-6.662 1.218-1.793 2.723-3.171 4.388-3.939.801-.384 1.602-.577 2.402-.577 1.377 0 2.435.545 3.203 1.634l.096.096c0 .032.032.064.064.096l.384-1.057c.225-.609.865-.929 1.474-.705s.896.865.673 1.473l-3.523 9.705c-.16.384-.224.769-.224 1.121 0 .384.063.672.191.865.032.032.064.096.129.128.063.064.224.096.448.096.416 0 1.089-.256 1.729-.769.608-.513 1.185-1.217 1.537-2.21l1.089-3.011c.225-.608.865-.929 1.474-.705s.897.865.672 1.474zm-10.953 3.555c1.121-1.025 2.21-2.53 2.851-4.324.801-2.21.544-3.779.032-4.516-.32-.448-.769-.672-1.346-.672-.993 0-2.178.608-3.299 1.633-1.153 1.057-2.21 2.562-2.851 4.356-.864 2.21-.576 3.779-.063 4.516.32.449.769.673 1.345.673.929 0 2.178-.609 3.331-1.666z"/>
    <path d="M342.146 248.25l-.225.513-.192.576-.448 1.281c-.384 1.249-1.089 2.594-2.05 3.619s-2.242 1.762-3.684 1.762c-.736 0-1.217-.224-1.569-.48-.992.417-1.953.48-2.689.48-.353 0-.897-.032-1.441-.256-.545-.224-1.058-.641-1.281-1.377-.288-.993.224-2.146 1.217-2.819 1.025-.64 2.658-.865 4.292.513.032.032.096.096.16.128l.128.128c.513-.673.545-1.345.192-2.114-.385-.737-.993-1.505-1.729-2.306l-1.121-1.121c-.608-.608-1.217-1.185-1.729-1.793l-1.409 4.1c-.225.512-.577.769-1.089.769-.097 0-.225-.032-.385-.064-.608-.224-.929-.833-.704-1.441l2.53-7.302c.224-.609.864-.929 1.473-.705s.929.865.705 1.473l-.128.32c-.032.064 0 .16.063.32.032.16.16.352.32.577.48.64 1.186 1.345 1.954 2.114.929.896 1.89 1.89 2.658 2.946.736 1.057 1.217 2.21 1.121 3.395-.064.737-.353 1.409-.833 2.082.736-.256 1.313-.865 1.825-1.569.48-.705.801-1.474 1.025-2.082.353-1.025.544-1.601.673-1.954l.16-.353c.031-.064.031-.096.063-.128.353-.608.865-.897 1.474-.672.608.224.896.832.673 1.44zm-9.801 5.381c-.417-.288-.769-.352-1.121-.224-.225.096-.288.16-.385.256.064.032.225.032.449.032.416 0 .769-.031 1.057-.064z"/>
  </g>
  <path fill="none" d="M-276-39.5H748M-276-39.5H748M-276-39.5H748M-276-39.5H748M-276-39.5H748M-276-39.5H748M748-39.5H-276"/>
</svg>